<?xml version="1.0" standalone="no"?>
<!DOCTYPE svg PUBLIC "-//W3C//DTD SVG 1.1//EN" "http://www.w3.org/Graphics/SVG/1.1/DTD/svg11.dtd" >
<svg>
<metadata>
Created by FontForge 20120731 at Tue Jul  2 13:10:29 2019
 By www
Copyright 1990 as an unpublished work by Bitstream Inc.  All rights reserved.  Confidential.
</metadata>
<defs>
<font id="UniversityRomanBT-Regular" horiz-adv-x="500" >
  <font-face 
    font-family="University Roman"
    font-weight="300"
    font-stretch="normal"
    units-per-em="1000"
    panose-1="0 0 0 0 0 0 0 0 0 0"
    ascent="800"
    descent="-200"
    x-height="417"
    cap-height="639"
    bbox="-167 -287 1237 937"
    underline-thickness="33"
    underline-position="-102"
    stemh="23"
    stemv="33"
    unicode-range="U+0020-FB02"
  />
<missing-glyph horiz-adv-x="308" 
 />
    <glyph glyph-name=".notdef" horiz-adv-x="308" 
 />
    <glyph glyph-name="space" unicode=" " horiz-adv-x="308" 
 />
    <glyph glyph-name="exclam" unicode="!" horiz-adv-x="213" 
d="M143 35c0 -21 -16 -37 -37 -37s-37 16 -37 37s16 37 37 37c20 0 37 -16 37 -37zM101 105c-4 148 -16 285 -16 411c0 92 4 137 21 137s22 -45 22 -137c0 -126 -12 -263 -16 -411h-11z" />
    <glyph glyph-name="quotedbl" unicode="&#x22;" horiz-adv-x="325" 
d="M91 425h-14l-29 221c-1 6 -2 14 -2 22c0 31 14 46 38 46s37 -16 37 -46c0 -6 -1 -14 -2 -22zM248 425h-14l-28 221c-1 6 -2 14 -2 22c0 31 13 46 37 46s38 -16 38 -46c0 -6 -1 -14 -2 -22z" />
    <glyph glyph-name="numbersign" unicode="#" horiz-adv-x="769" 
d="M395 710h46l-85 -243h146l86 243h47l-86 -243h157l-13 -39h-158l-52 -148h170l-14 -39h-170l-85 -241h-47l85 241h-147l-85 -241h-46l85 241h-166l15 39h165l52 148h-180l14 39h180zM342 428l-53 -148h147l52 148h-146z" />
    <glyph glyph-name="dollar" unicode="$" horiz-adv-x="410" 
d="M195 -62v63h-5c-115 0 -189 73 -189 174c0 59 29 117 73 145l7 -10c-29 -27 -43 -63 -43 -111c0 -102 64 -173 157 -177v322c-86 57 -129 100 -129 154c0 66 49 118 129 126v33l31 19v-52c34 0 68 -8 103 -23v64h15v-217h-15c0 9 1 18 1 26c0 90 -26 128 -104 133v-226
l57 -34c77 -46 114 -87 114 -157c0 -89 -63 -161 -171 -186v-47zM195 400v206c-58 -1 -93 -37 -93 -88c0 -36 17 -62 54 -89zM226 25c85 13 133 67 133 143c0 57 -27 94 -86 130l-47 29v-302z" />
    <glyph glyph-name="percent" unicode="%" horiz-adv-x="622" 
d="M300 449c0 -99 -66 -167 -147 -167c-74 0 -135 65 -135 157c0 106 63 173 144 173c78 0 138 -65 138 -163zM161 301c61 0 108 57 108 149c0 87 -50 143 -112 143c-61 0 -107 -58 -107 -152c0 -83 51 -140 111 -140zM101 -29l389 654h28l-385 -654h-32zM608 153
c0 -99 -65 -167 -146 -167c-74 0 -136 65 -136 157c0 106 64 173 145 173c78 0 137 -65 137 -163zM469 4c61 0 108 57 108 149c0 87 -50 144 -112 144c-61 0 -107 -58 -107 -152c0 -83 51 -141 111 -141z" />
    <glyph glyph-name="ampersand" unicode="&#x26;" horiz-adv-x="674" 
d="M371 478h-15v19c0 93 -28 136 -94 136c-42 0 -71 -26 -71 -63c0 -31 18 -58 54 -79v-12c-108 -30 -171 -110 -171 -213c0 -64 23 -123 63 -169c50 -57 116 -88 186 -88c127 0 230 100 230 234c0 103 -66 178 -154 178c-82 0 -148 -64 -148 -146c0 -71 46 -123 90 -123
c21 0 35 10 43 29l13 -7c-8 -31 -33 -49 -69 -49c-62 0 -114 56 -114 136c0 47 18 86 55 123c45 45 124 73 226 113c95 37 142 73 142 100c0 10 -4 18 -12 25l7 8c25 -7 36 -18 36 -41c0 -40 -55 -81 -162 -117l-84 -28c107 -3 171 -72 171 -184c0 -60 -21 -117 -60 -167
c-55 -70 -135 -108 -231 -108c-70 0 -132 22 -181 66c-58 51 -88 118 -88 194c0 104 55 188 159 237c-29 14 -45 40 -45 69c0 55 49 101 122 101c30 0 58 -9 87 -26v49h15v-197z" />
    <glyph glyph-name="quoteright" unicode="&#x2019;" horiz-adv-x="218" 
d="M121 582c-5 -2 -11 -3 -16 -3c-20 0 -36 16 -36 37s16 37 37 37c27 0 46 -23 46 -63c0 -57 -31 -97 -69 -99v20c26 10 39 28 39 58c0 4 -1 8 -1 13z" />
    <glyph glyph-name="parenleft" unicode="(" horiz-adv-x="283" 
d="M260 634c-103 -25 -158 -165 -158 -418s55 -394 158 -419v-18c-125 24 -195 174 -195 437s70 413 195 437v-19z" />
    <glyph glyph-name="parenright" unicode=")" horiz-adv-x="283" 
d="M22 634v19c125 -24 196 -174 196 -437s-71 -413 -196 -437v18c103 25 159 166 159 419s-56 393 -159 418z" />
    <glyph glyph-name="asterisk" unicode="*" horiz-adv-x="407" 
d="M252 537c22 14 49 30 75 57l21 -38c-27 -8 -56 -21 -86 -37l-43 -22l43 -22c26 -13 54 -28 87 -37l-22 -37c-22 21 -48 38 -74 56l-41 27l3 -49c1 -25 1 -56 12 -93h-43c7 27 9 58 10 93l2 49l-40 -26c-25 -16 -52 -33 -75 -57l-22 37c29 9 58 22 86 37l43 22l-43 23
c-23 12 -50 27 -86 36l21 37c28 -25 54 -41 75 -55l42 -27l-3 49c-1 29 -2 60 -12 93h43c-7 -31 -9 -62 -10 -93l-3 -48z" />
    <glyph glyph-name="plus" unicode="+" horiz-adv-x="833" 
d="M397 596h39v-278h273v-39h-273v-279h-39v279h-273v39h273v278z" />
    <glyph glyph-name="comma" unicode="," horiz-adv-x="213" 
d="M121 1c-5 -2 -11 -3 -16 -3c-20 0 -36 16 -36 37s16 37 37 37c26 0 44 -23 44 -62c0 -59 -29 -99 -67 -100v20c26 10 39 28 39 58c0 4 -1 8 -1 13z" />
    <glyph glyph-name="hyphen" unicode="-" horiz-adv-x="278" 
d="M38 206v42h202v-42h-202z" />
    <glyph glyph-name="period" unicode="." horiz-adv-x="213" 
d="M143 35c0 -21 -16 -37 -37 -37s-37 16 -37 37s16 37 37 37c20 0 37 -16 37 -37z" />
    <glyph glyph-name="slash" unicode="/" horiz-adv-x="299" 
d="M3 -93h-37l315 746h42z" />
    <glyph glyph-name="zero" unicode="0" horiz-adv-x="616" 
d="M587 314c0 -98 -33 -184 -91 -243c-53 -54 -127 -85 -199 -85c-149 0 -269 129 -269 319c0 98 30 180 87 242c52 57 126 89 201 89c154 0 271 -129 271 -322zM311 11c129 0 232 120 232 306c0 175 -108 294 -240 294c-130 0 -231 -121 -231 -302
c0 -178 110 -298 239 -298z" />
    <glyph glyph-name="one" unicode="1" horiz-adv-x="275" 
d="M177 637v-529c0 -79 8 -93 113 -93v-15h-255v15h102v557c-32 -33 -65 -62 -100 -85l-10 13c64 47 108 95 133 137h17z" />
    <glyph glyph-name="two" unicode="2" horiz-adv-x="372" 
d="M31 0c176 207 266 360 266 468c0 86 -45 134 -119 134c-90 0 -148 -71 -148 -201c0 -9 0 -19 1 -29h-13v261h13v-104c41 69 104 108 172 108c87 0 143 -58 143 -152c0 -114 -98 -242 -241 -439h232v175h12v-221h-318z" />
    <glyph glyph-name="three" unicode="3" horiz-adv-x="376" 
d="M-13 16c35 -16 67 -25 97 -25c50 0 103 22 149 65c55 51 84 114 84 177c0 86 -63 146 -150 146c-38 0 -71 -10 -101 -33l-9 14c43 31 93 35 130 52c47 22 70 56 70 104c0 60 -35 99 -91 99c-64 0 -113 -51 -113 -134h-14v160h14v-63c41 38 85 58 131 58
c69 0 113 -44 113 -109c0 -59 -27 -100 -82 -125c94 -16 147 -78 147 -165c0 -57 -24 -117 -70 -168c-57 -62 -133 -95 -220 -95c-33 0 -64 6 -93 20z" />
    <glyph glyph-name="four" unicode="4" horiz-adv-x="377" 
d="M271 108c0 -74 3 -93 79 -93v-15h-201v15h83v167h-231v16c16 15 27 33 39 53l242 386l12 -8l-23 -37v-373h106c-24 -26 -58 -37 -106 -37v-74zM43 219h189v309z" />
    <glyph glyph-name="five" unicode="5" horiz-adv-x="362" 
d="M54 -3c62 5 124 44 175 111c41 55 63 113 63 170c0 77 -43 124 -117 124c-48 0 -91 -26 -137 -76v297h245v94h14v-137h-243v-207c45 41 91 61 139 61c85 0 145 -62 145 -146c0 -79 -35 -156 -104 -221c-52 -49 -116 -77 -180 -80v10z" />
    <glyph glyph-name="six" unicode="6" horiz-adv-x="421" 
d="M67 302c40 61 95 92 160 92c99 0 175 -78 175 -185c0 -122 -89 -223 -196 -223c-106 0 -184 95 -184 245c0 119 48 241 123 322c53 56 111 84 178 84c6 0 11 -1 17 -1l-1 -24c-6 1 -13 1 -19 1c-128 0 -222 -108 -253 -311zM205 366c-75 0 -140 -66 -140 -154
c0 -104 77 -190 158 -190s141 62 141 153c0 108 -71 191 -159 191z" />
    <glyph glyph-name="seven" unicode="7" horiz-adv-x="359" 
d="M140 0c5 117 64 313 188 577h-276v-165h-14v226l13 -10c18 -5 35 -5 52 -5h237c7 0 18 2 34 9h14c-139 -241 -192 -436 -192 -530c0 -65 31 -88 107 -88h15l-3 -14h-175z" />
    <glyph glyph-name="eight" unicode="8" horiz-adv-x="411" 
d="M167 366l-39 27c-46 31 -70 67 -70 108c0 77 67 136 152 136c87 0 153 -66 153 -152c0 -50 -27 -99 -78 -136c78 -50 115 -102 115 -173c0 -108 -85 -190 -204 -190c-103 0 -184 85 -184 197c0 92 54 157 155 183zM192 350c-90 -8 -140 -64 -140 -154
c0 -106 74 -186 168 -186c84 0 144 62 144 148c0 70 -58 136 -172 192zM270 358c38 31 57 68 57 111c0 74 -69 139 -140 139c-54 0 -94 -40 -94 -92c0 -47 38 -84 117 -126z" />
    <glyph glyph-name="nine" unicode="9" horiz-adv-x="421" 
d="M353 341c-46 -66 -100 -98 -165 -98c-101 0 -175 76 -175 175c0 123 87 219 192 219c110 0 194 -93 194 -244c0 -122 -43 -237 -114 -317c-52 -60 -113 -90 -184 -90h-10l1 23h5c142 0 246 123 256 332zM208 274c78 0 141 63 141 148c0 102 -79 179 -168 179
c-76 0 -132 -59 -132 -140c0 -110 72 -187 159 -187z" />
    <glyph glyph-name="colon" unicode=":" horiz-adv-x="213" 
d="M143 35c0 -21 -16 -37 -37 -37s-37 16 -37 37s16 37 37 37c20 0 37 -16 37 -37zM143 313c0 -21 -16 -37 -37 -37s-37 16 -37 37s16 36 37 36c20 0 37 -15 37 -36z" />
    <glyph glyph-name="semicolon" unicode=";" horiz-adv-x="213" 
d="M143 313c0 -21 -16 -37 -37 -37s-37 16 -37 37s16 37 37 37c20 0 37 -16 37 -37zM121 1c-5 -2 -11 -3 -16 -3c-20 0 -36 16 -36 37s16 37 37 37c26 0 44 -23 44 -62c0 -59 -29 -99 -67 -100v20c26 10 39 28 39 58c0 4 -1 8 -1 13z" />
    <glyph glyph-name="less" unicode="&#x3c;" horiz-adv-x="833" 
d="M704 549v-44l-510 -207l510 -207v-43l-575 235v30z" />
    <glyph glyph-name="equal" unicode="=" horiz-adv-x="833" 
d="M124 406h585v-39h-585v39zM124 229h585v-39h-585v39z" />
    <glyph glyph-name="greater" unicode="&#x3e;" horiz-adv-x="833" 
d="M129 549l575 -236v-30l-575 -235v43l510 207l-510 207v44z" />
    <glyph glyph-name="question" unicode="?" horiz-adv-x="385" 
d="M208 35c0 -21 -16 -37 -37 -37s-37 16 -37 37s16 37 37 37c20 0 37 -16 37 -37zM184 450l15 4c7 -12 11 -25 11 -38c0 -40 -33 -72 -77 -72c-57 0 -102 54 -102 135c0 102 66 174 160 174c87 0 149 -67 149 -164c0 -78 -33 -124 -96 -179c-45 -39 -80 -62 -80 -104
c0 -26 28 -29 28 -53c0 -11 -9 -18 -23 -18c-16 0 -31 20 -31 51c0 41 19 77 56 115c56 58 108 96 108 188c0 93 -45 148 -111 148c-68 0 -118 -61 -118 -159c0 -77 24 -116 66 -116c29 0 52 24 52 56c0 9 -2 19 -7 32z" />
    <glyph glyph-name="at" unicode="@" horiz-adv-x="986" 
d="M532 474c-39 0 -67 -21 -97 -65c-52 -77 -78 -165 -78 -223c0 -67 32 -105 80 -105c44 0 86 30 124 88c40 62 62 137 62 194c0 63 -41 111 -91 111zM583 168c-39 -71 -91 -106 -155 -106c-74 0 -127 65 -127 162c0 67 32 142 90 199c44 44 97 67 143 67
c54 0 92 -34 107 -98l28 90h59l-82 -295c-5 -18 -10 -35 -10 -53c0 -34 19 -54 51 -54c28 0 70 17 108 53c61 57 100 147 100 242c0 189 -137 314 -347 314c-114 0 -215 -38 -292 -110c-89 -83 -135 -196 -135 -333c0 -112 33 -190 114 -260c76 -66 175 -102 287 -102
s217 35 304 102l13 -15c-95 -71 -202 -107 -317 -107c-122 0 -220 28 -300 90c-98 75 -149 181 -149 308c0 132 56 248 164 338c85 71 189 108 307 108c225 0 370 -132 370 -334c0 -102 -40 -197 -108 -259c-39 -36 -81 -54 -123 -54c-63 0 -96 36 -100 107z" />
    <glyph glyph-name="A" unicode="A" horiz-adv-x="419" 
d="M-15 0v15h37l175 666l183 -599c14 -45 24 -67 60 -67v-15h-143v15h58l-120 406h-88l-79 -320c-3 -13 -5 -26 -5 -40c0 -37 20 -46 70 -46h17v-15h-165zM231 437l-43 141l-36 -141h79z" />
    <glyph glyph-name="B" unicode="B" horiz-adv-x="506" 
d="M14 0v15h55v536c0 56 -2 72 -47 72h-8v16h104v-37c30 35 70 52 118 52c82 0 134 -45 134 -108c0 -54 -33 -93 -98 -111c130 -8 211 -97 211 -219c0 -132 -104 -230 -244 -230c-42 0 -83 11 -129 30v-16h-96zM116 551v-107h75c91 0 133 23 133 90c0 62 -40 100 -100 100
c-51 0 -95 -33 -108 -83zM116 424v-243c0 -56 1 -96 9 -124c9 -30 48 -51 108 -51c122 0 203 88 203 216c0 140 -80 202 -245 202h-75z" />
    <glyph glyph-name="C" unicode="C" horiz-adv-x="558" 
d="M560 68c-49 -53 -120 -82 -197 -82s-142 19 -197 59c-86 61 -136 161 -136 268c0 99 32 179 98 244c60 59 147 95 240 95c46 0 91 -10 137 -29v62h14v-248h-14v81c0 71 -51 111 -146 111c-56 0 -109 -18 -156 -50c-84 -58 -125 -140 -125 -249c0 -87 23 -156 74 -215
c57 -67 138 -104 220 -104c71 0 132 24 176 70z" />
    <glyph glyph-name="D" unicode="D" horiz-adv-x="626" 
d="M14 0v15h55v536v6c0 52 -1 66 -50 66h-5v16h104v-16c53 20 103 29 151 29c78 0 144 -19 196 -57c83 -61 130 -157 130 -265c0 -98 -38 -185 -108 -250c-63 -58 -146 -91 -234 -91c-43 0 -88 9 -135 27v-16h-104zM118 585v-526c37 -28 84 -45 145 -45
c167 0 284 128 284 310c0 178 -121 306 -277 306c-55 0 -106 -16 -152 -45z" />
    <glyph glyph-name="E" unicode="E" horiz-adv-x="360" 
d="M118 445h86v100h14v-222h-14v28c0 70 -14 79 -77 79h-9v-415h86c90 0 105 25 105 104v59h14v-224h-14v46h-295v15h55v537c0 55 0 72 -43 72h-12v15h297v46h14v-236h-14v65c0 83 -13 110 -105 110h-88v-179z" />
    <glyph glyph-name="F" unicode="F" horiz-adv-x="333" 
d="M118 445h108v100h14v-222h-14v37c0 64 -21 70 -78 70h-30v-322c0 -75 1 -94 66 -94c7 0 14 1 23 1v-15h-193v15h55v537c0 55 0 72 -43 72h-12v15h302v46h14v-224h-14v55c0 85 -15 108 -105 108h-93v-179z" />
    <glyph glyph-name="G" unicode="G" horiz-adv-x="684" 
d="M622 126v-5c0 -4 1 -9 5 -14l7 -10c-71 -73 -166 -111 -274 -111c-92 0 -171 31 -234 92s-95 140 -95 234c0 100 35 183 107 250c63 58 150 92 245 92c62 0 124 -17 193 -45v76h15v-248h-15v54c0 37 -3 61 -28 85c-32 30 -98 55 -176 55s-144 -27 -199 -78
c-64 -60 -94 -135 -94 -233c0 -187 123 -309 299 -309c78 0 145 22 198 65v40c0 65 -2 72 -55 72h-39v16h211v-16h-71v-62z" />
    <glyph glyph-name="H" unicode="H" horiz-adv-x="444" 
d="M375 108v-7c0 -63 1 -86 49 -86h6v-15h-159v15h55v412h-208v-319c0 -72 1 -93 63 -93h9v-15h-176v15h55v536c0 55 0 72 -47 72h-8v16h160v-16h-56v-179h208v107c0 56 0 72 -46 72h-9v16h159v-16h-55v-515z" />
    <glyph glyph-name="I" unicode="I" horiz-adv-x="187" 
d="M71 531c0 70 0 93 -52 93h-7v15h166v-15h-58v-516c0 -68 0 -93 50 -93h9v-15h-165v15h57v516z" />
    <glyph glyph-name="J" unicode="J" horiz-adv-x="382" 
d="M324 213c0 -62 -3 -111 -30 -154c-30 -46 -79 -73 -135 -73c-93 0 -151 52 -151 123c0 47 27 89 76 117l8 -7c-26 -29 -37 -62 -37 -102c0 -67 43 -112 106 -112c81 0 114 50 114 152v394c0 60 0 73 -57 73c-8 0 -16 -1 -26 -1v16h187v-16h-55v-410z" />
    <glyph glyph-name="K" unicode="K" horiz-adv-x="402" 
d="M118 325v-217c0 -72 1 -93 63 -93h9v-15h-176v15h55v536c0 55 0 72 -47 72h-8v16h160v-16h-56v-265l194 266h-60v15h160v-15h-66l-161 -210l181 -332c24 -45 31 -67 78 -67h9v-15h-99l-201 372z" />
    <glyph glyph-name="L" unicode="L" horiz-adv-x="347" 
d="M118 15h70c88 0 105 25 105 118v139h15v-318h-15v46h-279v15h55v537c0 55 0 72 -43 72h-12v15h167v-15h-63v-609z" />
    <glyph glyph-name="M" unicode="M" horiz-adv-x="505" 
d="M88 108c0 -73 1 -93 67 -93h5v-15h-151v15h56v537c0 54 -1 72 -48 72h-8v15h89l152 -364l141 364h98v-15h-55v-516v-7c0 -63 1 -86 49 -86h6v-15h-159v15h56v557l-147 -379l-151 360v-445z" />
    <glyph glyph-name="N" unicode="N" horiz-adv-x="420" 
d="M10 0v15h56v536c0 54 -1 72 -48 72h-8v16h87l241 -540v452c0 60 -3 72 -63 72h-8v16h152v-16h-58v-685l-272 604v-434c0 -72 1 -93 63 -93h9v-15h-151z" />
    <glyph glyph-name="O" unicode="O" horiz-adv-x="752" 
d="M721 322c0 -93 -42 -185 -114 -248c-65 -56 -151 -88 -246 -88c-93 0 -171 30 -235 92c-63 62 -95 140 -95 234c0 100 36 186 107 250c63 57 153 91 244 91c72 0 140 -21 200 -63c92 -64 139 -155 139 -268zM673 314c0 84 -30 162 -85 221c-59 64 -135 97 -220 97
c-78 0 -147 -29 -202 -84c-59 -59 -87 -133 -87 -225c0 -188 125 -316 297 -316c81 0 153 29 207 83c57 57 90 137 90 224z" />
    <glyph glyph-name="P" unicode="P" horiz-adv-x="593" 
d="M14 0v15h55v536c0 54 0 72 -47 72h-8v16h104v-36c61 33 119 50 176 50c154 0 273 -115 273 -261c0 -157 -122 -276 -303 -276c-51 0 -99 15 -146 46v-54c0 -74 1 -93 67 -93h17v-15h-188zM118 560v-348c37 -47 101 -75 173 -75c133 0 231 104 231 248
c0 143 -103 244 -234 244c-66 0 -124 -24 -170 -69z" />
    <glyph glyph-name="Q" unicode="Q" horiz-adv-x="752" 
d="M306 16c21 -6 50 -8 85 -8c26 0 52 4 79 10c-36 12 -68 18 -97 18c-26 0 -48 -6 -67 -20zM502 30c106 51 171 161 171 286c0 83 -30 160 -85 219c-59 64 -135 97 -220 97c-78 0 -147 -29 -202 -84c-59 -59 -87 -133 -87 -226c0 -144 68 -248 195 -298v2c0 26 23 38 70 38
c35 0 90 -10 158 -34zM1237 -144c-44 -16 -93 -23 -149 -23c-139 0 -227 34 -293 58c-21 8 -119 50 -297 119c-38 -16 -86 -24 -143 -24c-87 0 -168 33 -229 92c-63 62 -95 140 -95 234c0 100 36 186 107 250c63 57 153 91 244 91c72 0 140 -21 200 -63
c92 -64 139 -155 139 -268c0 -127 -73 -243 -190 -297c269 -99 471 -161 622 -161c23 0 51 2 84 5v-13z" />
    <glyph glyph-name="R" unicode="R" horiz-adv-x="609" 
d="M118 561v-380l22 25c48 -42 100 -63 158 -63c145 0 244 101 244 248c0 140 -105 238 -237 238c-75 0 -143 -25 -187 -68zM118 602c61 34 122 50 185 50c166 0 277 -107 277 -260c0 -156 -117 -267 -264 -267c-21 0 -40 2 -61 6l117 -58c72 -36 127 -61 176 -61
c21 0 42 4 64 13l4 -15c-30 -13 -57 -20 -86 -20c-74 0 -218 55 -412 178v-60c0 -73 1 -94 64 -94c6 0 13 1 20 1v-15h-188v15h55v536c0 54 0 72 -47 72h-8v16h104v-37z" />
    <glyph glyph-name="S" unicode="S" horiz-adv-x="513" 
d="M369 444v75c0 78 -24 113 -89 113c-55 0 -95 -35 -95 -84c0 -66 49 -90 139 -138c111 -60 172 -100 172 -206c0 -122 -105 -218 -253 -218c-138 0 -231 84 -231 193c0 100 78 175 172 175c83 0 136 -44 136 -104c0 -42 -24 -66 -66 -66c-10 0 -22 3 -35 8l3 12
c3 0 6 -1 9 -1c32 0 49 19 49 53c0 43 -41 79 -98 79c-81 0 -139 -56 -139 -140c0 -100 94 -181 216 -181c117 0 199 71 199 176c0 92 -53 124 -144 174c-103 57 -161 95 -161 167c0 70 54 123 137 123c27 0 53 -7 79 -17v50h15v-243h-15z" />
    <glyph glyph-name="T" unicode="T" horiz-adv-x="389" 
d="M170 624h-39c-90 0 -106 -23 -106 -108v-87h-13v256h13v-46h338v46h14v-256h-14v87c0 85 -15 108 -105 108h-39v-516c0 -75 1 -94 66 -94c7 0 14 1 23 1v-15h-221v15h83v609z" />
    <glyph glyph-name="U" unicode="U" horiz-adv-x="428" 
d="M66 551c0 54 -1 72 -48 72h-8v16h160v-16h-56v-445c0 -108 24 -165 112 -165c100 0 118 61 118 181v357c0 59 -1 72 -53 72h-13v16h144v-16h-55v-423c0 -58 0 -102 -14 -134c-23 -52 -70 -80 -136 -80c-107 0 -151 60 -151 186v379z" />
    <glyph glyph-name="V" unicode="V" horiz-adv-x="419" 
d="M225 -42l-189 612c-10 34 -23 54 -58 54h-17v15h170v-15h-62l162 -554l121 473c3 13 6 25 6 37c0 30 -14 44 -44 44h-27v15h163v-15h-58z" />
    <glyph glyph-name="W" unicode="W" horiz-adv-x="611" 
d="M553 543c3 14 6 26 6 37c0 30 -14 44 -44 44h-18v15h158v-15h-58l-172 -664l-106 329l-94 -331l-189 612c-10 34 -23 54 -58 54h-17v15h152v-15h-44l165 -561l75 267l-84 240c-13 38 -22 54 -56 54h-6v15h119v-15h-30l77 -218l33 137c5 19 6 33 6 43c0 25 -12 38 -36 38
h-16v15h143v-15h-57l-61 -260l94 -288z" />
    <glyph glyph-name="X" unicode="X" horiz-adv-x="459" 
d="M222 367l-128 -275c-10 -21 -15 -37 -15 -47c0 -24 20 -29 67 -30v-15h-176v15h63l177 379l-101 200c-14 27 -30 30 -61 30h-17v15h173v-15h-62l89 -183l70 147c4 9 7 16 7 21c0 11 -11 15 -31 15h-20v15h143v-15h-59l-96 -206l168 -340c23 -45 44 -63 93 -63h14v-15
h-188v15h65z" />
    <glyph glyph-name="Y" unicode="Y" horiz-adv-x="456" 
d="M252 296v-188c0 -76 1 -93 74 -93h21v-15h-209v15h66v277l-158 297c-18 34 -24 35 -57 35h-13v15h174v-15h-69l162 -300l104 239c7 16 10 31 10 36c0 21 -10 25 -41 25h-11v15h136v-15h-47z" />
    <glyph glyph-name="Z" unicode="Z" horiz-adv-x="365" 
d="M59 15h166c90 0 105 25 105 104v120h15v-285h-15v46h-327l264 624h-126c-72 0 -82 -27 -82 -104v-87h-15v252h15v-46h263z" />
    <glyph glyph-name="bracketleft" unicode="[" horiz-adv-x="283" 
d="M269 -213h-203v852h203v-15h-166v-822h166v-15z" />
    <glyph glyph-name="backslash" unicode="\" horiz-adv-x="299" 
d="M-34 653h42l314 -746h-37z" />
    <glyph glyph-name="bracketright" unicode="]" horiz-adv-x="283" 
d="M15 -213v15h165v822h-165v15h202v-852h-202z" />
    <glyph glyph-name="asciicircum" unicode="^" horiz-adv-x="1000" 
d="M462 714h74l261 -276h-41l-257 227l-259 -227h-39z" />
    <glyph glyph-name="underscore" unicode="_" 
d="M0 -197h500v-39h-500v39z" />
    <glyph glyph-name="quoteleft" unicode="&#x2018;" horiz-adv-x="218" 
d="M99 562c5 2 11 3 16 3c20 0 36 -16 36 -37s-16 -37 -37 -37c-27 0 -45 23 -45 63c0 57 30 97 68 99v-20c-26 -10 -39 -28 -39 -58c0 -4 1 -8 1 -13z" />
    <glyph glyph-name="a" unicode="a" horiz-adv-x="340" 
d="M296 53c0 -26 5 -38 25 -38h34v-15h-97v38c-34 -31 -72 -47 -109 -47c-76 0 -132 59 -132 142c0 80 65 141 144 141c32 0 64 -11 97 -32v21c0 97 -26 145 -93 145c-65 0 -110 -49 -110 -132v-10h-11v181h11v-81c34 39 74 59 121 59c95 0 120 -60 120 -179v-193zM261 92
v90c-16 47 -55 75 -101 75c-65 0 -105 -46 -105 -120c0 -76 49 -125 107 -125c47 0 92 34 99 80z" />
    <glyph glyph-name="b" unicode="b" horiz-adv-x="523" 
d="M103 0h-84v15h45v622l-40 -47l-11 9l98 111l10 -9l-18 -21v-313c58 40 114 60 178 60c130 0 216 -84 216 -211c0 -61 -26 -118 -72 -162c-45 -42 -101 -65 -163 -65c-59 0 -110 19 -159 56v-45zM103 305v-155v-10c0 -25 1 -44 14 -61c31 -39 95 -69 158 -69
c105 0 186 79 186 193c0 120 -87 202 -196 202c-87 0 -162 -53 -162 -100z" />
    <glyph glyph-name="c" unicode="c" horiz-adv-x="417" 
d="M399 72c-49 -55 -104 -82 -170 -82c-117 0 -203 83 -203 204c0 133 99 233 232 233c32 0 63 -6 94 -19v42h12v-218h-12v123c-26 34 -66 53 -112 53c-97 0 -181 -82 -181 -191c0 -114 83 -199 191 -199c52 0 94 21 139 66z" />
    <glyph glyph-name="d" unicode="d" horiz-adv-x="523" 
d="M419 76c-56 -59 -114 -86 -186 -86c-124 0 -206 86 -206 211c0 130 95 226 224 226c64 0 118 -22 168 -69v279l-40 -47l-10 9l97 111l10 -9l-18 -21v-627c0 -26 5 -38 25 -38h40v-15h-104v76zM419 144v145c-25 73 -93 118 -173 118c-108 0 -180 -75 -180 -198
c0 -115 75 -195 184 -195c87 0 158 57 169 130z" />
    <glyph glyph-name="e" unicode="e" horiz-adv-x="483" 
d="M72 292h338c-21 63 -83 102 -170 102c-74 0 -133 -36 -168 -102zM66 275c-6 -20 -9 -40 -9 -61c0 -116 85 -196 199 -196c90 0 163 52 195 141l14 -4c-34 -105 -117 -166 -223 -166c-132 0 -216 83 -216 204c0 131 104 234 235 234c99 0 175 -59 192 -152h-387z" />
    <glyph glyph-name="f" unicode="f" horiz-adv-x="181" 
d="M56 402h-37v15h37v108c0 117 70 181 169 181c20 0 43 -3 71 -8v15h11v-147h-11v70c-3 28 -39 50 -89 50c-71 0 -112 -48 -112 -138v-131h91v-15h-91v-349c0 -26 6 -38 26 -38h38v-15h-150v15h47v387z" />
    <glyph glyph-name="g" unicode="g" horiz-adv-x="392" 
d="M74 211c-17 23 -26 49 -26 78c0 78 61 138 142 138c37 0 67 -11 90 -31c25 8 40 22 45 41h13c-4 -27 -18 -48 -40 -59c15 -22 22 -45 22 -68c0 -83 -62 -145 -142 -145c-37 0 -66 10 -93 33c-10 -7 -15 -15 -15 -24c0 -44 74 -40 183 -59c118 -21 181 -86 181 -184
c0 -123 -99 -218 -238 -218c-124 0 -208 84 -208 200c0 77 43 143 125 187c-45 7 -67 29 -67 62c0 17 9 33 28 49zM175 90c-80 0 -158 -72 -158 -163c0 -109 86 -189 200 -189c108 0 185 75 185 179s-91 173 -227 173zM171 402c-59 0 -100 -41 -100 -94
c0 -67 58 -117 123 -117c57 0 98 40 98 97c0 64 -53 114 -121 114z" />
    <glyph glyph-name="h" unicode="h" horiz-adv-x="366" 
d="M274 290c0 73 -25 108 -82 108c-53 0 -93 -40 -93 -109v-236c0 -26 6 -38 26 -38h22v-15h-131v15h44v622l-40 -47l-10 9l97 111l11 -9l-19 -21v-319c29 44 62 64 106 64c84 0 108 -49 108 -151v-221c0 -26 6 -38 26 -38h22v-15h-119v15h32v275z" />
    <glyph glyph-name="i" unicode="i" horiz-adv-x="163" 
d="M52 531c0 14 12 26 26 26s26 -12 26 -26c0 -15 -11 -26 -26 -26s-26 11 -26 26zM105 53c0 -26 6 -38 26 -38h22v-15h-131v15h44v345l-40 -46l-10 9l97 111l10 -9l-18 -21v-351z" />
    <glyph glyph-name="j" unicode="j" horiz-adv-x="159" 
d="M104 -50c0 -125 -62 -196 -150 -196c-40 0 -66 16 -66 37c0 10 9 22 13 22c12 0 13 -41 65 -41c73 0 99 62 99 185v402l-40 -45l-10 9l97 111l10 -9l-18 -21v-454zM51 531c0 14 12 26 26 26s26 -12 26 -26c0 -15 -11 -26 -26 -26s-26 11 -26 26z" />
    <glyph glyph-name="k" unicode="k" horiz-adv-x="331" 
d="M100 241l140 162h-47v14h135v-14h-54l-149 -158l166 -202c14 -17 23 -28 40 -28h24v-15h-82l-173 217v-164c0 -26 5 -38 25 -38h38v-15h-154v15h52v622l-41 -47l-10 9l97 111l11 -9l-18 -21v-439z" />
    <glyph glyph-name="l" unicode="l" horiz-adv-x="160" 
d="M100 53c0 -26 5 -38 25 -38h32v-15h-148v15h52v622l-41 -47l-10 9l97 111l11 -9l-18 -21v-627z" />
    <glyph glyph-name="m" unicode="m" horiz-adv-x="472" 
d="M98 360c23 41 49 61 84 61c39 0 64 -20 73 -61c20 40 49 61 84 61c61 0 80 -44 80 -132v-236c0 -26 5 -38 25 -38h23v-15h-132v15h45v305c0 52 -15 78 -47 78c-52 0 -73 -43 -73 -130v-215c0 -26 6 -38 27 -38h21v-15h-126v15h39v305c0 51 -13 76 -50 76
c-47 0 -69 -43 -69 -130v-213c0 -26 5 -38 26 -38h27v-15h-135v15h43v351l-40 -47l-11 9l98 111l10 -9l-22 -25v-45z" />
    <glyph glyph-name="n" unicode="n" horiz-adv-x="368" 
d="M277 289c0 72 -23 108 -83 108c-55 0 -92 -40 -92 -108v-236c0 -26 5 -38 25 -38h23v-15h-131v15h44v346l-40 -47l-11 9l98 111l10 -9l-18 -21v-43c27 43 61 64 107 64c81 0 107 -48 107 -151v-221c0 -26 5 -38 25 -38h22v-15h-118v15h32v274z" />
    <glyph glyph-name="o" unicode="o" horiz-adv-x="502" 
d="M26 194c0 132 103 233 235 233c129 0 215 -82 215 -203c0 -136 -102 -235 -238 -235c-126 0 -212 85 -212 205zM59 217c0 -121 88 -204 199 -204c103 0 185 76 185 185c0 122 -88 206 -198 206c-102 0 -186 -77 -186 -187z" />
    <glyph glyph-name="p" unicode="p" horiz-adv-x="523" 
d="M102 -183c0 -26 5 -38 25 -38h35v-15h-142v15h43v582l-40 -47l-11 9l98 111l10 -9l-18 -21v-51c56 50 111 74 179 74c129 0 215 -84 215 -211c0 -63 -23 -115 -69 -159c-47 -44 -103 -67 -166 -67c-60 0 -107 19 -159 60v-233zM101 278v-147c24 -73 93 -119 174 -119
c106 0 180 77 180 200c0 118 -76 195 -183 195c-93 0 -169 -60 -171 -129z" />
    <glyph glyph-name="q" unicode="q" horiz-adv-x="528" 
d="M462 -183c0 -26 5 -38 25 -38h40v-15h-104v312c-55 -58 -115 -86 -188 -86c-126 0 -208 87 -208 212c0 129 96 225 224 225c67 0 122 -22 172 -69v59h79v-14h-40v-586zM423 144v163c-37 62 -104 100 -175 100c-108 0 -182 -78 -182 -201c0 -113 78 -190 186 -190
c87 0 160 57 171 128z" />
    <glyph glyph-name="r" unicode="r" horiz-adv-x="296" 
d="M272 318c0 52 -29 83 -76 83c-54 0 -94 -38 -94 -107v-241c0 -26 5 -38 25 -38h23v-15h-132v15h45v346l-40 -47l-11 9l98 111l10 -9l-18 -21v-40c29 42 63 61 108 61c22 0 42 -4 62 -13v37h13v-170h-13v39z" />
    <glyph glyph-name="s" unicode="s" horiz-adv-x="384" 
d="M312 287h-12v7c0 77 -31 116 -92 116c-42 0 -71 -26 -71 -66c0 -49 46 -58 116 -85c80 -31 116 -60 116 -127c0 -95 -74 -159 -186 -159c-104 0 -170 58 -170 137c0 61 43 105 99 105c43 0 73 -29 73 -63c0 -36 -23 -58 -69 -61v9c26 7 38 22 38 45c0 26 -22 48 -52 48
c-38 0 -65 -28 -65 -70c0 -68 65 -130 159 -130c84 0 139 52 139 126c0 67 -45 81 -121 109s-112 49 -112 107c0 55 42 92 108 92c28 0 57 -8 90 -23v54h12v-171z" />
    <glyph glyph-name="t" unicode="t" horiz-adv-x="286" 
d="M56 231v172h-38v14h38v196l39 43v-239h90v-14h-90v-244c0 -99 18 -150 84 -150c25 0 45 11 65 34c14 16 18 34 31 34c8 0 14 -6 14 -14c0 -27 -42 -70 -111 -70c-47 0 -85 23 -104 64c-17 37 -18 82 -18 139v35z" />
    <glyph glyph-name="u" unicode="u" horiz-adv-x="363" 
d="M95 127c0 -73 24 -107 82 -107c56 0 92 40 92 108v237c0 26 -5 38 -25 38h-32v14h97v-364c0 -26 5 -38 25 -38h23v-15h-88v56c-29 -44 -61 -65 -107 -65c-81 0 -106 49 -106 152v222c0 26 -6 38 -26 38h-36v14h101v-290z" />
    <glyph glyph-name="v" unicode="v" horiz-adv-x="343" 
d="M173 -9l-132 364c-12 34 -23 48 -55 48h-3v14h124v-14h-41l125 -349l68 217c15 47 22 79 22 94c0 26 -10 38 -33 38h-5v14h123v-14h-39l-140 -412h-14z" />
    <glyph glyph-name="w" unicode="w" horiz-adv-x="472" 
d="M171 -9l-129 364c-13 35 -22 48 -58 48h-4v14h126v-14h-40l122 -349l44 140l-56 161c-12 33 -23 48 -54 48h-3v14h108v-14h-27l51 -149l11 33c11 35 15 66 15 83c0 24 -10 33 -34 33h-4v14h117v-14h-34l-60 -180l60 -169l68 217c15 48 21 82 21 99c0 24 -9 33 -32 33h-4
v14h119v-14h-38l-137 -412h-14l-63 173l-58 -173h-13z" />
    <glyph glyph-name="x" unicode="x" horiz-adv-x="366" 
d="M-39 0v15h52l145 228l-92 135c-12 19 -30 25 -59 25h-7v14h152v-14h-56l83 -127l52 83c5 8 8 15 8 24c0 13 -13 20 -38 20h-10v14h138v-14h-49l-90 -143l126 -191c25 -36 52 -55 83 -55c3 0 6 1 9 1v-15h-156v15h54l-137 212l-46 -73c-35 -55 -57 -90 -57 -113
c0 -19 14 -27 44 -27c5 0 11 1 18 1v-15h-167z" />
    <glyph glyph-name="y" unicode="y" horiz-adv-x="321" 
d="M49 355c-12 35 -22 49 -56 49c-5 0 -10 -1 -15 -1v14h139v-14h-41l104 -302l57 170c13 39 19 70 19 91c0 30 -9 41 -35 41h-10v14h144v-14h-44c-74 -173 -118 -356 -206 -521c-54 -101 -102 -152 -146 -152c-4 0 -7 0 -10 1v59h10c2 -9 9 -14 18 -14c42 0 112 87 181 266
z" />
    <glyph glyph-name="z" unicode="z" horiz-adv-x="338" 
d="M187 15c100 0 112 28 112 120v40h11v-214h-11v39h-287l254 403h-146c-60 0 -76 -35 -76 -122v-24h-10v211h10v-51h277l-256 -402h122z" />
    <glyph glyph-name="braceleft" unicode="{" 
d="M412 740v-23c-105 -1 -128 -32 -128 -129v-72c0 -129 -20 -183 -148 -206c128 -22 148 -76 148 -206v-72c0 -97 23 -128 128 -129v-22h-5c-142 0 -182 42 -182 169v108c0 98 -28 130 -139 139v27c111 10 139 40 139 139v108c0 127 40 169 182 169h5z" />
    <glyph glyph-name="bar" unicode="|" 
d="M228 764h44v-1000h-44v1000z" />
    <glyph glyph-name="braceright" unicode="}" 
d="M87 740h5c142 0 183 -42 183 -169v-108c0 -99 27 -129 139 -139v-27c-111 -9 -139 -41 -139 -139v-108c0 -127 -42 -169 -183 -169h-5v22c105 1 129 32 129 129v72c0 130 20 183 148 206c-128 23 -148 77 -148 206v72c0 97 -24 128 -129 129v23z" />
    <glyph glyph-name="asciitilde" unicode="~" horiz-adv-x="833" 
d="M747 361v-45c-67 -47 -129 -72 -189 -72c-53 0 -97 18 -141 34c-48 17 -92 34 -141 34c-59 0 -118 -27 -189 -77v45c67 47 129 71 189 71c52 0 96 -17 141 -33c47 -17 91 -35 141 -35c59 0 118 28 189 78z" />
    <glyph glyph-name="exclamdown" unicode="&#xa1;" horiz-adv-x="213" 
d="M112 538c4 -148 16 -284 16 -410c0 -92 -5 -137 -22 -137s-22 44 -22 136c0 126 12 263 16 411h12zM69 608c0 21 16 37 37 37s37 -16 37 -37s-16 -36 -37 -36c-20 0 -37 15 -37 36z" />
    <glyph glyph-name="cent" unicode="&#xa2;" horiz-adv-x="417" 
d="M395 171c-43 -51 -95 -78 -155 -81v-99h-15v99c-119 11 -192 92 -192 207c0 120 76 213 192 232v94h15v-92c7 1 13 1 20 1c32 0 62 -6 90 -19v43h11v-223h-11v132c-27 31 -66 48 -106 48c-98 0 -179 -80 -179 -197c0 -119 82 -202 185 -202c49 0 91 23 135 69z" />
    <glyph glyph-name="sterling" unicode="&#xa3;" horiz-adv-x="428" 
d="M7 17c57 46 83 99 83 172c0 32 -7 70 -18 114h-82v16h79c-11 44 -16 82 -16 112c0 123 80 205 193 205c51 0 98 -16 145 -49v48h15v-238h-15c0 10 1 19 1 28c0 126 -47 190 -141 190c-92 0 -155 -70 -155 -180c0 -33 6 -71 13 -116h137v-16h-134c9 -46 14 -82 14 -108
c0 -67 -26 -124 -78 -166c51 19 96 29 135 29c78 0 136 -34 173 -34c31 0 64 15 103 42l8 -13c-51 -44 -96 -67 -144 -67c-56 0 -121 36 -198 36c-36 0 -66 -10 -100 -30z" />
    <glyph glyph-name="fraction" unicode="&#x2044;" horiz-adv-x="167" 
d="M-167 -14l459 651h41l-463 -651h-37z" />
    <glyph glyph-name="yen" unicode="&#xa5;" horiz-adv-x="456" 
d="M248 288v-183c0 -75 2 -91 73 -91h22v-14h-200v14h66v270l-16 30h-147v16h138l-52 94h-86v16h78l-74 134c-18 34 -24 34 -56 34h-13v15h164v-15h-69l161 -295l106 236c7 16 10 29 10 34c0 21 -11 25 -42 25h-11v15h136v-15h-46l-74 -168h95v-16h-102l-42 -94h144v-16
h-151z" />
    <glyph glyph-name="florin" unicode="&#x192;" horiz-adv-x="375" 
d="M158 -59c-13 -106 -70 -162 -138 -162c-22 0 -44 6 -67 15l-3 -27h-16l23 164h12c-3 -33 -6 -59 -6 -78c0 -35 20 -55 52 -55c60 0 92 48 103 145l54 459h-73v15h75l16 124c13 107 69 161 136 161c22 0 43 -5 65 -14l3 27h16l-23 -164h-13c3 33 6 58 6 77
c0 35 -19 56 -50 56c-59 0 -89 -48 -100 -145l-15 -122h77v-15h-79z" />
    <glyph glyph-name="section" unicode="&#xa7;" horiz-adv-x="407" 
d="M151 379c-82 24 -121 63 -121 127c0 80 78 147 186 147c64 0 100 -23 109 -23c6 0 12 6 17 18h10v-119h-10c-4 72 -47 108 -126 108c-88 0 -152 -54 -152 -120s51 -87 150 -114c117 -32 180 -65 180 -155c0 -72 -42 -122 -116 -134c70 -24 107 -74 107 -140
c0 -95 -77 -164 -182 -164c-85 0 -128 34 -152 34c-8 0 -13 -9 -13 -27h-12v138h12c0 -4 -1 -7 -1 -11c0 -69 63 -115 158 -115c97 0 161 57 161 133c0 80 -49 97 -155 127c-122 35 -184 66 -184 156c0 72 47 121 134 134zM170 361c-79 0 -128 -44 -128 -104
c0 -40 21 -68 65 -92c43 -23 94 -36 138 -36c75 0 123 44 123 105c0 74 -80 127 -198 127z" />
    <glyph glyph-name="currency" unicode="&#xa4;" horiz-adv-x="606" 
d="M74 689l101 -101c39 31 81 46 128 46s90 -15 129 -46l100 101l29 -29l-101 -100c30 -38 45 -82 45 -128c0 -47 -15 -90 -45 -128l101 -100l-29 -29l-100 101c-38 -30 -82 -45 -129 -45c-48 0 -90 15 -128 45l-101 -101l-28 29l101 100c-30 38 -45 82 -45 128
s15 90 45 128l-101 100zM304 594c-90 0 -162 -73 -162 -161c0 -89 72 -162 162 -162s162 73 162 162s-72 161 -162 161z" />
    <glyph glyph-name="quotesingle" unicode="'" horiz-adv-x="167" 
d="M90 425h-14l-29 221c-1 6 -1 14 -1 22c0 31 13 46 37 46s38 -16 38 -46c0 -6 -1 -14 -2 -22z" />
    <glyph glyph-name="quotedblleft" unicode="&#x201c;" horiz-adv-x="352" 
d="M99 562c5 2 11 3 16 3c20 0 36 -16 36 -37s-16 -37 -37 -37c-27 0 -45 23 -45 63c0 57 30 97 68 99v-20c-26 -10 -39 -28 -39 -58c0 -4 1 -8 1 -13zM233 562c5 2 11 3 16 3c20 0 36 -16 36 -37s-16 -37 -37 -37c-27 0 -45 23 -45 63c0 57 30 97 68 99v-20
c-26 -10 -39 -28 -39 -58c0 -4 1 -8 1 -13z" />
    <glyph glyph-name="guillemotleft" unicode="&#xab;" horiz-adv-x="340" 
d="M194 361l-130 -156l130 -155h-43l-115 155l115 156h43zM321 361l-130 -156l130 -155h-43l-115 155l115 156h43z" />
    <glyph glyph-name="guilsinglleft" unicode="&#x2039;" horiz-adv-x="213" 
d="M194 361l-130 -156l130 -155h-43l-115 155l115 156h43z" />
    <glyph glyph-name="guilsinglright" unicode="&#x203a;" horiz-adv-x="213" 
d="M25 50l130 156l-130 155h43l115 -155l-115 -156h-43z" />
    <glyph glyph-name="fi" unicode="&#xfb01;" horiz-adv-x="333" 
d="M56 402h-37v15h37v108c0 114 68 181 155 181c16 0 34 -3 55 -8v15h12v-126h-12v49c-5 28 -32 47 -71 47c-66 0 -99 -48 -99 -144v-122h182v-364c0 -26 5 -38 25 -38h22v-15h-131v15h42v387h-140v-349c0 -26 5 -38 25 -38h38v-15h-150v15h47v387zM231 511
c0 14 12 26 26 26s26 -12 26 -26c0 -15 -11 -26 -26 -26s-26 11 -26 26z" />
    <glyph glyph-name="fl" unicode="&#xfb02;" horiz-adv-x="336" 
d="M56 402h-37v15h37v108c0 111 62 178 137 178c16 0 33 -4 51 -11l40 46l10 -10l-18 -20v-655c0 -26 6 -38 26 -38h32v-15h-148v15h51v586c0 55 -12 80 -54 80c-56 0 -87 -48 -87 -142v-122h90v-15h-90v-349c0 -26 5 -38 25 -38h38v-15h-150v15h47v387z" />
    <glyph glyph-name="endash" unicode="&#x2013;" 
d="M0 242h500v-33h-500v33z" />
    <glyph glyph-name="dagger" unicode="&#x2020;" horiz-adv-x="407" 
d="M173 218c13 50 20 97 20 142v38h-50c-32 0 -72 -5 -121 -16v55c54 -10 94 -14 121 -14h50v66c0 51 -6 101 -17 150h55c-11 -49 -17 -99 -17 -150v-66h50c27 0 67 4 121 14v-55c-49 11 -89 16 -121 16h-50v-38c0 -45 7 -92 20 -142c-17 -72 -20 -167 -23 -288l-3 -132h-17
v131c0 122 -1 218 -18 289z" />
    <glyph glyph-name="daggerdbl" unicode="&#x2021;" horiz-adv-x="407" 
d="M173 218c13 50 20 97 20 142v53h-50c-32 0 -72 -5 -121 -16v52c54 -10 94 -14 121 -14h50v54c0 51 -6 101 -17 150h55c-11 -49 -17 -99 -17 -150v-54h50c27 0 67 4 121 14v-52c-49 11 -89 16 -121 16h-50v-53c0 -45 7 -92 20 -142c-13 -51 -19 -98 -19 -142v-53h49
c32 0 72 5 121 16v-52c-54 10 -94 14 -121 14h-49v-54c0 -51 5 -101 16 -150h-54c11 49 16 99 16 150v54h-49c-27 0 -68 -4 -122 -14v52c49 -11 90 -16 122 -16h49v53c0 46 -7 93 -20 142z" />
    <glyph glyph-name="periodcentered" unicode="&#xb7;" horiz-adv-x="213" 
d="M72 316c0 19 15 35 34 35s35 -16 35 -35c0 -20 -15 -35 -35 -35s-34 15 -34 35z" />
    <glyph glyph-name="paragraph" unicode="&#xb6;" 
d="M455 722v-31h-63v-691h-34v691h-94v-691h-34v382c-116 5 -186 73 -186 170c0 100 75 170 193 170h218z" />
    <glyph glyph-name="bullet" unicode="&#x2022;" horiz-adv-x="590" 
d="M150 372c0 80 65 144 145 144c79 0 144 -64 144 -144c0 -79 -65 -145 -145 -145s-144 65 -144 145z" />
    <glyph glyph-name="quotesinglbase" unicode="&#x201a;" horiz-adv-x="218" 
d="M123 1c-5 -2 -11 -3 -15 -3c-21 0 -36 16 -36 37s16 37 37 37c26 0 43 -23 43 -62c0 -59 -28 -99 -66 -100v20c26 10 38 28 38 57c0 5 0 9 -1 14z" />
    <glyph glyph-name="quotedblbase" unicode="&#x201e;" horiz-adv-x="352" 
d="M121 1c-5 -2 -11 -3 -16 -3c-20 0 -36 16 -36 37s16 37 37 37c26 0 44 -23 44 -62c0 -59 -29 -99 -67 -100v20c26 10 39 28 39 58c0 4 -1 8 -1 13zM260 1c-5 -2 -11 -3 -16 -3c-20 0 -36 16 -36 37s16 37 37 37c26 0 44 -23 44 -62c0 -59 -29 -99 -67 -100v20
c26 10 39 28 39 58c0 4 -1 8 -1 13z" />
    <glyph glyph-name="quotedblright" unicode="&#x201d;" horiz-adv-x="352" 
d="M121 582c-5 -2 -11 -3 -16 -3c-20 0 -36 16 -36 37s16 37 37 37c27 0 46 -23 46 -63c0 -57 -31 -97 -69 -99v20c26 10 39 28 39 58c0 4 -1 8 -1 13zM253 582c-5 -2 -11 -3 -15 -3c-21 0 -36 16 -36 37s16 37 37 37c27 0 45 -23 45 -63c0 -57 -30 -97 -68 -99v20
c26 10 38 28 38 57c0 5 0 9 -1 14z" />
    <glyph glyph-name="guillemotright" unicode="&#xbb;" horiz-adv-x="340" 
d="M146 49l130 157l-130 155h44l114 -155l-114 -157h-44zM19 49l131 157l-131 155h44l115 -155l-115 -157h-44z" />
    <glyph glyph-name="ellipsis" unicode="&#x2026;" horiz-adv-x="1000" 
d="M203 35c0 -21 -16 -37 -37 -37s-37 16 -37 37s16 37 37 37c20 0 37 -16 37 -37zM536 35c0 -21 -16 -37 -37 -37s-37 16 -37 37s16 37 37 37c20 0 37 -16 37 -37zM870 35c0 -21 -16 -37 -37 -37s-37 16 -37 37s16 37 37 37c20 0 37 -16 37 -37z" />
    <glyph glyph-name="perthousand" unicode="&#x2030;" horiz-adv-x="948" 
d="M300 449c0 -99 -66 -167 -147 -167c-74 0 -135 65 -135 157c0 106 63 173 144 173c78 0 138 -65 138 -163zM161 301c61 0 108 57 108 149c0 87 -50 143 -112 143c-61 0 -107 -58 -107 -152c0 -83 51 -140 111 -140zM101 -29l389 654h28l-385 -654h-32zM607 153
c0 -99 -65 -167 -146 -167c-74 0 -136 65 -136 157c0 106 64 173 145 173c78 0 137 -65 137 -163zM469 4c61 0 108 57 108 149c0 87 -50 144 -112 144c-61 0 -107 -58 -107 -152c0 -83 51 -141 111 -141zM934 153c0 -99 -66 -167 -147 -167c-74 0 -135 65 -135 157
c0 106 64 173 145 173c78 0 137 -65 137 -163zM795 4c61 0 108 57 108 149c0 87 -50 144 -112 144c-61 0 -107 -58 -107 -152c0 -83 51 -141 111 -141z" />
    <glyph glyph-name="questiondown" unicode="&#xbf;" horiz-adv-x="385" 
d="M177 608c0 21 16 37 37 37s37 -16 37 -37s-16 -36 -37 -36c-20 0 -37 15 -37 36zM202 194l-16 -5c-7 12 -11 26 -11 39c0 40 33 72 77 72c57 0 102 -54 102 -135c0 -102 -66 -174 -160 -174c-87 0 -149 66 -149 163c0 78 33 124 96 179c45 39 80 62 80 104
c0 26 -27 29 -27 53c0 11 8 18 22 18c16 0 31 -19 31 -50c0 -41 -19 -77 -56 -115c-56 -58 -108 -97 -108 -189c0 -93 46 -148 112 -148c68 0 117 62 117 160c0 77 -24 116 -66 116c-29 0 -51 -25 -51 -57c0 -9 2 -18 7 -31z" />
    <glyph glyph-name="grave" unicode="`" 
d="M287 485h-15l-113 126c-8 9 -13 17 -13 27c0 12 7 19 16 19c8 0 14 -7 23 -20z" />
    <glyph glyph-name="acute" unicode="&#xb4;" 
d="M213 485l102 152c8 13 15 20 24 20s15 -8 15 -19c0 -10 -5 -18 -13 -27l-113 -126h-15z" />
    <glyph glyph-name="circumflex" unicode="&#x2c6;" 
d="M146 485l94 170h20l94 -170h-15l-89 123l-89 -123h-15z" />
    <glyph glyph-name="tilde" unicode="&#x2dc;" 
d="M360 612c-9 -54 -29 -81 -62 -81c-13 0 -26 3 -39 8l-42 15c-9 3 -17 5 -23 5c-21 0 -34 -15 -40 -44h-14c9 54 28 81 60 81c12 0 25 -2 39 -7l44 -15c8 -3 16 -6 25 -6c19 0 32 15 38 44h14z" />
    <glyph glyph-name="macron" unicode="&#xaf;" 
d="M154 530v42h192v-42h-192z" />
    <glyph glyph-name="breve" unicode="&#x2d8;" 
d="M142 632h15c8 -57 37 -83 93 -83c57 0 85 26 92 83h15c-10 -82 -47 -125 -107 -125s-98 43 -108 125z" />
    <glyph glyph-name="dotaccent" unicode="&#x2d9;" 
d="M212 551c0 20 18 38 38 38c21 0 38 -18 38 -38c0 -22 -16 -38 -38 -38s-38 16 -38 38z" />
    <glyph glyph-name="dieresis" unicode="&#xa8;" 
d="M144 551c0 20 18 38 38 38c21 0 38 -18 38 -38c0 -22 -16 -38 -38 -38s-38 16 -38 38zM281 551c0 20 17 38 37 38c21 0 38 -18 38 -38c0 -22 -16 -38 -38 -38s-37 16 -37 38z" />
    <glyph glyph-name="ring" unicode="&#x2da;" 
d="M138 585c0 62 49 112 112 112s112 -49 112 -112s-49 -112 -112 -112s-112 50 -112 112zM167 585c0 -47 36 -83 83 -83s83 36 83 83s-36 84 -83 84s-83 -37 -83 -84z" />
    <glyph glyph-name="cedilla" unicode="&#xb8;" 
d="M137 -179l10 26c41 -21 78 -31 108 -31c42 0 65 19 65 52c0 30 -23 49 -65 49c-9 0 -19 -1 -29 -3v86h24v-62c10 2 19 2 28 2c52 0 81 -26 81 -70c0 -50 -39 -81 -100 -81c-30 0 -72 11 -122 32z" />
    <glyph glyph-name="hungarumlaut" unicode="&#x2dd;" 
d="M250 631c6 17 9 27 21 27c8 0 15 -7 15 -18c0 -10 -5 -17 -9 -25l-67 -130h-13zM343 631c6 17 9 27 21 27c8 0 15 -7 15 -18c0 -10 -4 -17 -8 -25l-68 -130h-13z" />
    <glyph glyph-name="ogonek" unicode="&#x2db;" 
d="M313 15c-63 -46 -94 -91 -94 -137c0 -37 22 -59 56 -59c21 0 45 14 62 40l11 -7c-23 -42 -53 -62 -94 -62c-42 0 -73 31 -73 75c0 51 38 103 113 150h19z" />
    <glyph glyph-name="caron" unicode="&#x2c7;" 
d="M146 655h15l89 -124l89 124h15l-94 -170h-20z" />
    <glyph glyph-name="emdash" unicode="&#x2014;" horiz-adv-x="1000" 
d="M0 242h1000v-33h-1000v33z" />
    <glyph glyph-name="AE" unicode="&#xc6;" horiz-adv-x="611" 
d="M370 445h87v100h14v-222h-14v28c0 70 -15 79 -78 79h-9v-415h86c90 0 106 25 106 104v59h14v-224h-14v46h-296v15h56v415h-101l-173 -332c-8 -14 -14 -27 -14 -41c0 -32 26 -42 81 -42v-15h-195v15h49l332 609h-76v15h339v46h14v-236h-14v65c0 83 -14 110 -106 110h-88
v-179zM322 445v179l-93 -179h93z" />
    <glyph glyph-name="ordfeminine" unicode="&#xaa;" horiz-adv-x="272" 
d="M28 667h18v-50c22 22 53 35 82 35c79 0 98 -42 98 -130v-130c0 -20 2 -27 25 -27h20v-18h-82v21c-22 -19 -47 -28 -78 -28c-60 0 -103 45 -103 104c0 58 50 102 112 102c24 0 46 -6 69 -19v7c0 65 -17 98 -66 98c-47 0 -78 -32 -78 -89v-5h-17v129zM191 477
c-11 30 -38 49 -71 49c-46 0 -74 -29 -74 -79c0 -51 31 -84 75 -84c35 0 65 22 70 52v62zM27 278h225v-37h-225v37z" />
    <glyph glyph-name="Lslash" unicode="&#x141;" horiz-adv-x="352" 
d="M123 457l95 64v-22l-95 -63v-421h69c88 0 106 25 106 118v139h15v-318h-15v46h-279v15h55v394l-69 -48v22l69 47v122c0 55 0 72 -43 72h-12v15h166v-15h-62v-167z" />
    <glyph glyph-name="Oslash" unicode="&#xd8;" horiz-adv-x="752" 
d="M622 558c66 -62 99 -135 99 -222c0 -79 -22 -151 -65 -209c-66 -90 -173 -141 -298 -141c-84 0 -153 23 -209 71l-115 -120h-37l132 138c-64 59 -99 141 -99 231c0 80 22 150 63 206c65 88 170 141 287 141c82 0 158 -26 222 -77l103 111h39zM156 104l420 444
c-60 56 -130 84 -208 84c-77 0 -147 -29 -202 -84c-59 -59 -89 -135 -89 -227c0 -88 27 -161 79 -217zM595 528l-420 -443c59 -53 129 -82 200 -82c77 0 157 33 208 85c54 54 90 143 90 236c0 78 -27 150 -78 204z" />
    <glyph glyph-name="OE" unicode="&#x152;" horiz-adv-x="801" 
d="M563 445h87v100h13v-222h-13v28c0 70 -15 79 -78 79h-9v-415h86c90 0 106 25 106 104v59h14v-224h-14v46h-247c-24 0 -69 -10 -137 -10c-203 0 -335 131 -335 332c0 200 133 329 333 329c42 0 97 -12 168 -12h219v46h14v-236h-14v65c0 83 -13 110 -105 110h-88v-179z
M515 133v414c0 62 -15 85 -130 85c-180 0 -300 -123 -300 -315c0 -181 123 -310 293 -310c75 0 120 15 130 30c5 8 7 40 7 96z" />
    <glyph glyph-name="ordmasculine" unicode="&#xba;" horiz-adv-x="380" 
d="M197 653c98 0 165 -64 165 -152c0 -90 -75 -162 -183 -162c-97 0 -163 61 -163 147c0 95 75 167 181 167zM329 491c0 79 -63 138 -145 138c-78 0 -133 -53 -133 -131s63 -135 143 -135c79 0 135 50 135 128zM41 278h296v-37h-296v37z" />
    <glyph glyph-name="ae" unicode="&#xe6;" horiz-adv-x="719" 
d="M55 137c0 -77 43 -125 105 -125c64 0 109 46 109 129c0 74 -41 116 -109 116c-67 0 -105 -43 -105 -120zM294 80c-44 -60 -89 -89 -148 -89c-72 0 -129 59 -129 138c0 88 62 145 149 145c36 0 68 -10 98 -34v36c0 88 -32 132 -99 132s-110 -50 -110 -136v-6h-11v181h11
v-81c36 40 76 60 123 60c70 0 116 -43 116 -112v-2c45 73 117 114 198 114c107 0 185 -59 197 -151h-387c-7 -23 -10 -46 -10 -66c0 -108 87 -191 201 -191c88 0 161 52 194 141l14 -4c-33 -105 -117 -166 -223 -166c-86 0 -150 33 -184 91zM308 292h338
c-20 61 -85 102 -170 102c-71 0 -131 -36 -168 -102z" />
    <glyph glyph-name="dotlessi" unicode="&#x131;" horiz-adv-x="163" 
d="M105 53c0 -26 6 -38 26 -38h22v-15h-131v15h44v345l-40 -46l-10 9l97 111l10 -9l-18 -21v-351z" />
    <glyph glyph-name="lslash" unicode="&#x142;" horiz-adv-x="169" 
d="M104 379l60 40v-20l-60 -40v-306c0 -26 6 -38 26 -38h32v-15h-148v15h51v321l-60 -41v20l60 41v281l-40 -47l-10 9l97 111l10 -9l-18 -21v-301z" />
    <glyph glyph-name="oslash" unicode="&#xf8;" horiz-adv-x="502" 
d="M84 46c-39 40 -58 89 -58 147c0 132 103 233 235 233c52 0 97 -13 135 -39l60 68h32l-73 -83c40 -36 61 -84 61 -147c0 -137 -102 -236 -239 -236c-51 0 -95 14 -136 42l-69 -76h-32zM128 59c36 -32 78 -48 127 -48c105 0 186 78 186 192c0 61 -18 107 -54 140zM370 358
c-33 29 -79 46 -126 46c-103 0 -183 -77 -183 -195c0 -58 17 -103 50 -133z" />
    <glyph glyph-name="oe" unicode="&#x153;" horiz-adv-x="898" 
d="M453 118c-42 -81 -122 -129 -211 -129c-132 0 -216 83 -216 204c0 131 104 234 235 234c99 0 174 -49 203 -130c44 82 121 130 212 130c101 0 179 -61 192 -152h-387c-6 -20 -10 -40 -10 -61c0 -116 86 -196 201 -196c88 0 161 52 194 141l13 -4
c-34 -105 -116 -166 -222 -166c-101 0 -173 47 -204 129zM487 292h338c-23 63 -86 102 -170 102c-71 0 -131 -36 -168 -102zM61 207c0 -111 85 -193 192 -193c105 0 188 77 188 189c0 117 -86 198 -192 198c-104 0 -188 -76 -188 -194z" />
    <glyph glyph-name="germandbls" unicode="&#xdf;" horiz-adv-x="509" 
d="M9 0v15h47v510c0 118 64 182 166 182c86 0 137 -49 137 -128c0 -26 -5 -51 -15 -76c-52 -8 -81 -40 -81 -86c0 -49 30 -65 85 -89c91 -40 142 -73 142 -161c0 -100 -76 -176 -187 -176c-96 0 -160 61 -160 143c0 67 40 111 97 111c43 0 72 -28 72 -62
c0 -39 -23 -60 -68 -62v9c25 8 38 23 38 45c0 26 -22 45 -48 45c-41 0 -68 -29 -68 -76c0 -76 56 -133 146 -133c86 0 142 57 142 145c0 77 -50 98 -140 140c-56 26 -81 59 -81 111c0 51 30 90 82 104c7 17 10 34 10 53c0 78 -42 123 -113 123c-80 0 -116 -48 -116 -147
v-487c0 -26 5 -38 25 -38h29v-15h-141z" />
    <glyph glyph-name="Aacute" unicode="&#xc1;" horiz-adv-x="419" 
d="M-15 0v15h37l175 666l183 -599c14 -45 24 -67 60 -67v-15h-143v15h58l-120 406h-88l-79 -320c-3 -13 -5 -26 -5 -40c0 -37 20 -46 70 -46h17v-15h-165zM231 437l-43 141l-36 -141h79zM160 712l102 152c8 13 15 20 24 20s15 -8 15 -19c0 -10 -5 -18 -13 -27l-113 -126h-15
z" />
    <glyph glyph-name="Acircumflex" unicode="&#xc2;" horiz-adv-x="419" 
d="M-15 0v15h37l175 666l183 -599c14 -45 24 -67 60 -67v-15h-143v15h58l-120 406h-88l-79 -320c-3 -13 -5 -26 -5 -40c0 -37 20 -46 70 -46h17v-15h-165zM231 437l-43 141l-36 -141h79zM93 712l94 170h20l94 -170h-15l-89 123l-89 -123h-15z" />
    <glyph glyph-name="Adieresis" unicode="&#xc4;" horiz-adv-x="419" 
d="M-15 0v15h37l175 666l183 -599c14 -45 24 -67 60 -67v-15h-143v15h58l-120 406h-88l-79 -320c-3 -13 -5 -26 -5 -40c0 -37 20 -46 70 -46h17v-15h-165zM231 437l-43 141l-36 -141h79zM91 778c0 20 18 38 38 38c21 0 38 -18 38 -38c0 -22 -16 -38 -38 -38s-38 16 -38 38z
M228 778c0 20 17 38 37 38c21 0 38 -18 38 -38c0 -22 -16 -38 -38 -38s-37 16 -37 38z" />
    <glyph glyph-name="Agrave" unicode="&#xc0;" horiz-adv-x="419" 
d="M-15 0v15h37l175 666l183 -599c14 -45 24 -67 60 -67v-15h-143v15h58l-120 406h-88l-79 -320c-3 -13 -5 -26 -5 -40c0 -37 20 -46 70 -46h17v-15h-165zM231 437l-43 141l-36 -141h79zM234 712h-15l-113 126c-8 9 -13 17 -13 27c0 12 7 19 16 19c8 0 14 -7 23 -20z" />
    <glyph glyph-name="Aring" unicode="&#xc5;" horiz-adv-x="419" 
d="M-15 0v15h37l175 666l183 -599c14 -45 24 -67 60 -67v-15h-143v15h58l-120 406h-88l-79 -320c-3 -13 -5 -26 -5 -40c0 -37 20 -46 70 -46h17v-15h-165zM231 437l-43 141l-36 -141h79zM85 826c0 62 49 111 112 111s112 -48 112 -111s-49 -112 -112 -112s-112 50 -112 112z
M113 826c0 -47 37 -83 84 -83s83 36 83 83s-36 83 -83 83s-84 -36 -84 -83z" />
    <glyph glyph-name="Atilde" unicode="&#xc3;" horiz-adv-x="419" 
d="M-15 0v15h37l175 666l183 -599c14 -45 24 -67 60 -67v-15h-143v15h58l-120 406h-88l-79 -320c-3 -13 -5 -26 -5 -40c0 -37 20 -46 70 -46h17v-15h-165zM231 437l-43 141l-36 -141h79zM307 839c-9 -54 -29 -81 -62 -81c-13 0 -26 3 -39 8l-42 15c-9 3 -17 5 -23 5
c-21 0 -34 -15 -40 -44h-14c9 54 28 81 60 81c12 0 25 -2 39 -7l44 -15c8 -3 16 -6 25 -6c19 0 32 15 38 44h14z" />
    <glyph glyph-name="Ccedilla" unicode="&#xc7;" horiz-adv-x="558" 
d="M560 68c-49 -53 -120 -82 -197 -82s-142 19 -197 59c-86 61 -136 161 -136 268c0 99 32 179 98 244c60 59 147 95 240 95c46 0 91 -10 137 -29v62h14v-248h-14v81c0 71 -51 111 -146 111c-56 0 -109 -18 -156 -50c-84 -58 -125 -140 -125 -249c0 -87 23 -156 74 -215
c57 -67 138 -104 220 -104c71 0 132 24 176 70zM224 -179l10 26c41 -21 78 -31 108 -31c42 0 65 19 65 52c0 30 -23 49 -65 49c-9 0 -19 -1 -29 -3v86h24v-62c10 2 19 2 28 2c52 0 81 -26 81 -70c0 -50 -39 -81 -100 -81c-30 0 -72 11 -122 32z" />
    <glyph glyph-name="Eacute" unicode="&#xc9;" horiz-adv-x="360" 
d="M118 445h86v100h14v-222h-14v28c0 70 -14 79 -77 79h-9v-415h86c90 0 105 25 105 104v59h14v-224h-14v46h-295v15h55v537c0 55 0 72 -43 72h-12v15h297v46h14v-236h-14v65c0 83 -13 110 -105 110h-88v-179zM143 712l102 152c8 13 15 20 24 20s15 -8 15 -19
c0 -10 -5 -18 -13 -27l-113 -126h-15z" />
    <glyph glyph-name="Ecircumflex" unicode="&#xca;" horiz-adv-x="360" 
d="M118 445h86v100h14v-222h-14v28c0 70 -14 79 -77 79h-9v-415h86c90 0 105 25 105 104v59h14v-224h-14v46h-295v15h55v537c0 55 0 72 -43 72h-12v15h297v46h14v-236h-14v65c0 83 -13 110 -105 110h-88v-179zM76 712l94 170h20l94 -170h-15l-89 123l-89 -123h-15z" />
    <glyph glyph-name="Edieresis" unicode="&#xcb;" horiz-adv-x="360" 
d="M118 445h86v100h14v-222h-14v28c0 70 -14 79 -77 79h-9v-415h86c90 0 105 25 105 104v59h14v-224h-14v46h-295v15h55v537c0 55 0 72 -43 72h-12v15h297v46h14v-236h-14v65c0 83 -13 110 -105 110h-88v-179zM74 778c0 20 18 38 38 38c21 0 38 -18 38 -38
c0 -22 -16 -38 -38 -38s-38 16 -38 38zM211 778c0 20 17 38 37 38c21 0 38 -18 38 -38c0 -22 -16 -38 -38 -38s-37 16 -37 38z" />
    <glyph glyph-name="Egrave" unicode="&#xc8;" horiz-adv-x="360" 
d="M118 445h86v100h14v-222h-14v28c0 70 -14 79 -77 79h-9v-415h86c90 0 105 25 105 104v59h14v-224h-14v46h-295v15h55v537c0 55 0 72 -43 72h-12v15h297v46h14v-236h-14v65c0 83 -13 110 -105 110h-88v-179zM217 712h-15l-113 126c-8 9 -13 17 -13 27c0 12 7 19 16 19
c8 0 14 -7 23 -20z" />
    <glyph glyph-name="Iacute" unicode="&#xcd;" horiz-adv-x="187" 
d="M71 531c0 70 0 93 -52 93h-7v15h166v-15h-58v-516c0 -68 0 -93 50 -93h9v-15h-165v15h57v516zM57 712l102 152c8 13 15 20 24 20s15 -8 15 -19c0 -10 -5 -18 -13 -27l-113 -126h-15z" />
    <glyph glyph-name="Icircumflex" unicode="&#xce;" horiz-adv-x="187" 
d="M71 531c0 70 0 93 -52 93h-7v15h166v-15h-58v-516c0 -68 0 -93 50 -93h9v-15h-165v15h57v516zM-10 712l94 170h20l94 -170h-15l-89 123l-89 -123h-15z" />
    <glyph glyph-name="Idieresis" unicode="&#xcf;" horiz-adv-x="187" 
d="M71 531c0 70 0 93 -52 93h-7v15h166v-15h-58v-516c0 -68 0 -93 50 -93h9v-15h-165v15h57v516zM-12 778c0 20 18 38 38 38c21 0 38 -18 38 -38c0 -22 -16 -38 -38 -38s-38 16 -38 38zM125 778c0 20 17 38 37 38c21 0 38 -18 38 -38c0 -22 -16 -38 -38 -38s-37 16 -37 38z
" />
    <glyph glyph-name="Igrave" unicode="&#xcc;" horiz-adv-x="187" 
d="M71 531c0 70 0 93 -52 93h-7v15h166v-15h-58v-516c0 -68 0 -93 50 -93h9v-15h-165v15h57v516zM131 712h-15l-113 126c-8 9 -13 17 -13 27c0 12 7 19 16 19c8 0 14 -7 23 -20z" />
    <glyph glyph-name="Ntilde" unicode="&#xd1;" horiz-adv-x="420" 
d="M10 0v15h56v536c0 54 -1 72 -48 72h-8v16h87l241 -540v452c0 60 -3 72 -63 72h-8v16h152v-16h-58v-685l-272 604v-434c0 -72 1 -93 63 -93h9v-15h-151zM320 839c-9 -54 -29 -81 -62 -81c-13 0 -26 3 -39 8l-42 15c-9 3 -17 5 -23 5c-21 0 -34 -15 -40 -44h-14
c9 54 28 81 60 81c12 0 25 -2 39 -7l44 -15c8 -3 16 -6 25 -6c19 0 32 15 38 44h14z" />
    <glyph glyph-name="Oacute" unicode="&#xd3;" horiz-adv-x="752" 
d="M721 322c0 -93 -42 -185 -114 -248c-65 -56 -151 -88 -246 -88c-93 0 -171 30 -235 92c-63 62 -95 140 -95 234c0 100 36 186 107 250c63 57 153 91 244 91c72 0 140 -21 200 -63c92 -64 139 -155 139 -268zM673 314c0 84 -30 162 -85 221c-59 64 -135 97 -220 97
c-78 0 -147 -29 -202 -84c-59 -59 -87 -133 -87 -225c0 -188 125 -316 297 -316c81 0 153 29 207 83c57 57 90 137 90 224zM339 712l102 152c8 13 15 20 24 20s15 -8 15 -19c0 -10 -5 -18 -13 -27l-113 -126h-15z" />
    <glyph glyph-name="Ocircumflex" unicode="&#xd4;" horiz-adv-x="752" 
d="M721 322c0 -93 -42 -185 -114 -248c-65 -56 -151 -88 -246 -88c-93 0 -171 30 -235 92c-63 62 -95 140 -95 234c0 100 36 186 107 250c63 57 153 91 244 91c72 0 140 -21 200 -63c92 -64 139 -155 139 -268zM673 314c0 84 -30 162 -85 221c-59 64 -135 97 -220 97
c-78 0 -147 -29 -202 -84c-59 -59 -87 -133 -87 -225c0 -188 125 -316 297 -316c81 0 153 29 207 83c57 57 90 137 90 224zM272 712l94 170h20l94 -170h-15l-89 123l-89 -123h-15z" />
    <glyph glyph-name="Odieresis" unicode="&#xd6;" horiz-adv-x="752" 
d="M721 322c0 -93 -42 -185 -114 -248c-65 -56 -151 -88 -246 -88c-93 0 -171 30 -235 92c-63 62 -95 140 -95 234c0 100 36 186 107 250c63 57 153 91 244 91c72 0 140 -21 200 -63c92 -64 139 -155 139 -268zM673 314c0 84 -30 162 -85 221c-59 64 -135 97 -220 97
c-78 0 -147 -29 -202 -84c-59 -59 -87 -133 -87 -225c0 -188 125 -316 297 -316c81 0 153 29 207 83c57 57 90 137 90 224zM270 778c0 20 18 38 38 38c21 0 38 -18 38 -38c0 -22 -16 -38 -38 -38s-38 16 -38 38zM407 778c0 20 17 38 37 38c21 0 38 -18 38 -38
c0 -22 -16 -38 -38 -38s-37 16 -37 38z" />
    <glyph glyph-name="Ograve" unicode="&#xd2;" horiz-adv-x="752" 
d="M721 322c0 -93 -42 -185 -114 -248c-65 -56 -151 -88 -246 -88c-93 0 -171 30 -235 92c-63 62 -95 140 -95 234c0 100 36 186 107 250c63 57 153 91 244 91c72 0 140 -21 200 -63c92 -64 139 -155 139 -268zM673 314c0 84 -30 162 -85 221c-59 64 -135 97 -220 97
c-78 0 -147 -29 -202 -84c-59 -59 -87 -133 -87 -225c0 -188 125 -316 297 -316c81 0 153 29 207 83c57 57 90 137 90 224zM413 712h-15l-113 126c-8 9 -13 17 -13 27c0 12 7 19 16 19c8 0 14 -7 23 -20z" />
    <glyph glyph-name="Otilde" unicode="&#xd5;" horiz-adv-x="752" 
d="M721 322c0 -93 -42 -185 -114 -248c-65 -56 -151 -88 -246 -88c-93 0 -171 30 -235 92c-63 62 -95 140 -95 234c0 100 36 186 107 250c63 57 153 91 244 91c72 0 140 -21 200 -63c92 -64 139 -155 139 -268zM673 314c0 84 -30 162 -85 221c-59 64 -135 97 -220 97
c-78 0 -147 -29 -202 -84c-59 -59 -87 -133 -87 -225c0 -188 125 -316 297 -316c81 0 153 29 207 83c57 57 90 137 90 224zM486 839c-9 -54 -29 -81 -62 -81c-13 0 -26 3 -39 8l-42 15c-9 3 -17 5 -23 5c-21 0 -34 -15 -40 -44h-14c9 54 28 81 60 81c12 0 25 -2 39 -7
l44 -15c8 -3 16 -6 25 -6c19 0 32 15 38 44h14z" />
    <glyph glyph-name="Scaron" unicode="&#x160;" horiz-adv-x="513" 
d="M369 444v75c0 78 -24 113 -89 113c-55 0 -95 -35 -95 -84c0 -66 49 -90 139 -138c111 -60 172 -100 172 -206c0 -122 -105 -218 -253 -218c-138 0 -231 84 -231 193c0 100 78 175 172 175c83 0 136 -44 136 -104c0 -42 -24 -66 -66 -66c-10 0 -22 3 -35 8l3 12
c3 0 6 -1 9 -1c32 0 49 19 49 53c0 43 -41 79 -98 79c-81 0 -139 -56 -139 -140c0 -100 94 -181 216 -181c117 0 199 71 199 176c0 92 -53 124 -144 174c-103 57 -161 95 -161 167c0 70 54 123 137 123c27 0 53 -7 79 -17v50h15v-243h-15zM153 882h15l89 -124l89 124h15
l-94 -170h-20z" />
    <glyph glyph-name="Uacute" unicode="&#xda;" horiz-adv-x="428" 
d="M66 551c0 54 -1 72 -48 72h-8v16h160v-16h-56v-445c0 -108 24 -165 112 -165c100 0 118 61 118 181v357c0 59 -1 72 -53 72h-13v16h144v-16h-55v-423c0 -58 0 -102 -14 -134c-23 -52 -70 -80 -136 -80c-107 0 -151 60 -151 186v379zM179 712l102 152c8 13 15 20 24 20
s15 -8 15 -19c0 -10 -5 -18 -13 -27l-113 -126h-15z" />
    <glyph glyph-name="Ucircumflex" unicode="&#xdb;" horiz-adv-x="428" 
d="M66 551c0 54 -1 72 -48 72h-8v16h160v-16h-56v-445c0 -108 24 -165 112 -165c100 0 118 61 118 181v357c0 59 -1 72 -53 72h-13v16h144v-16h-55v-423c0 -58 0 -102 -14 -134c-23 -52 -70 -80 -136 -80c-107 0 -151 60 -151 186v379zM112 712l94 170h20l94 -170h-15
l-89 123l-89 -123h-15z" />
    <glyph glyph-name="Udieresis" unicode="&#xdc;" horiz-adv-x="428" 
d="M66 551c0 54 -1 72 -48 72h-8v16h160v-16h-56v-445c0 -108 24 -165 112 -165c100 0 118 61 118 181v357c0 59 -1 72 -53 72h-13v16h144v-16h-55v-423c0 -58 0 -102 -14 -134c-23 -52 -70 -80 -136 -80c-107 0 -151 60 -151 186v379zM110 778c0 20 18 38 38 38
c21 0 38 -18 38 -38c0 -22 -16 -38 -38 -38s-38 16 -38 38zM247 778c0 20 17 38 37 38c21 0 38 -18 38 -38c0 -22 -16 -38 -38 -38s-37 16 -37 38z" />
    <glyph glyph-name="Ugrave" unicode="&#xd9;" horiz-adv-x="428" 
d="M66 551c0 54 -1 72 -48 72h-8v16h160v-16h-56v-445c0 -108 24 -165 112 -165c100 0 118 61 118 181v357c0 59 -1 72 -53 72h-13v16h144v-16h-55v-423c0 -58 0 -102 -14 -134c-23 -52 -70 -80 -136 -80c-107 0 -151 60 -151 186v379zM253 712h-15l-113 126
c-8 9 -13 17 -13 27c0 12 7 19 16 19c8 0 14 -7 23 -20z" />
    <glyph glyph-name="Ydieresis" unicode="&#x178;" horiz-adv-x="456" 
d="M252 296v-188c0 -76 1 -93 74 -93h21v-15h-209v15h66v277l-158 297c-18 34 -24 35 -57 35h-13v15h174v-15h-69l162 -300l104 239c7 16 10 31 10 36c0 21 -10 25 -41 25h-11v15h136v-15h-47zM122 778c0 20 18 38 38 38c21 0 38 -18 38 -38c0 -22 -16 -38 -38 -38
s-38 16 -38 38zM259 778c0 20 17 38 37 38c21 0 38 -18 38 -38c0 -22 -16 -38 -38 -38s-37 16 -37 38z" />
    <glyph glyph-name="Zcaron" unicode="&#x17d;" horiz-adv-x="365" 
d="M59 15h166c90 0 105 25 105 104v120h15v-285h-15v46h-327l264 624h-126c-72 0 -82 -27 -82 -104v-87h-15v252h15v-46h263zM79 882h15l89 -124l89 124h15l-94 -170h-20z" />
    <glyph glyph-name="aacute" unicode="&#xe1;" horiz-adv-x="340" 
d="M296 53c0 -26 5 -38 25 -38h34v-15h-97v38c-34 -31 -72 -47 -109 -47c-76 0 -132 59 -132 142c0 80 65 141 144 141c32 0 64 -11 97 -32v21c0 97 -26 145 -93 145c-65 0 -110 -49 -110 -132v-10h-11v181h11v-81c34 39 74 59 121 59c95 0 120 -60 120 -179v-193zM261 92
v90c-16 47 -55 75 -101 75c-65 0 -105 -46 -105 -120c0 -76 49 -125 107 -125c47 0 92 34 99 80zM133 485l102 152c8 13 15 20 24 20s15 -8 15 -19c0 -10 -5 -18 -13 -27l-113 -126h-15z" />
    <glyph glyph-name="acircumflex" unicode="&#xe2;" horiz-adv-x="340" 
d="M296 53c0 -26 5 -38 25 -38h34v-15h-97v38c-34 -31 -72 -47 -109 -47c-76 0 -132 59 -132 142c0 80 65 141 144 141c32 0 64 -11 97 -32v21c0 97 -26 145 -93 145c-65 0 -110 -49 -110 -132v-10h-11v181h11v-81c34 39 74 59 121 59c95 0 120 -60 120 -179v-193zM261 92
v90c-16 47 -55 75 -101 75c-65 0 -105 -46 -105 -120c0 -76 49 -125 107 -125c47 0 92 34 99 80zM66 485l94 170h20l94 -170h-15l-89 123l-89 -123h-15z" />
    <glyph glyph-name="adieresis" unicode="&#xe4;" horiz-adv-x="340" 
d="M296 53c0 -26 5 -38 25 -38h34v-15h-97v38c-34 -31 -72 -47 -109 -47c-76 0 -132 59 -132 142c0 80 65 141 144 141c32 0 64 -11 97 -32v21c0 97 -26 145 -93 145c-65 0 -110 -49 -110 -132v-10h-11v181h11v-81c34 39 74 59 121 59c95 0 120 -60 120 -179v-193zM261 92
v90c-16 47 -55 75 -101 75c-65 0 -105 -46 -105 -120c0 -76 49 -125 107 -125c47 0 92 34 99 80zM64 551c0 20 18 38 38 38c21 0 38 -18 38 -38c0 -22 -16 -38 -38 -38s-38 16 -38 38zM201 551c0 20 17 38 37 38c21 0 38 -18 38 -38c0 -22 -16 -38 -38 -38s-37 16 -37 38z
" />
    <glyph glyph-name="agrave" unicode="&#xe0;" horiz-adv-x="340" 
d="M296 53c0 -26 5 -38 25 -38h34v-15h-97v38c-34 -31 -72 -47 -109 -47c-76 0 -132 59 -132 142c0 80 65 141 144 141c32 0 64 -11 97 -32v21c0 97 -26 145 -93 145c-65 0 -110 -49 -110 -132v-10h-11v181h11v-81c34 39 74 59 121 59c95 0 120 -60 120 -179v-193zM261 92
v90c-16 47 -55 75 -101 75c-65 0 -105 -46 -105 -120c0 -76 49 -125 107 -125c47 0 92 34 99 80zM207 485h-15l-113 126c-8 9 -13 17 -13 27c0 12 7 19 16 19c8 0 14 -7 23 -20z" />
    <glyph glyph-name="aring" unicode="&#xe5;" horiz-adv-x="340" 
d="M296 53c0 -26 5 -38 25 -38h34v-15h-97v38c-34 -31 -72 -47 -109 -47c-76 0 -132 59 -132 142c0 80 65 141 144 141c32 0 64 -11 97 -32v21c0 97 -26 145 -93 145c-65 0 -111 -49 -111 -132v-10h-10v181h12v-81c33 39 73 59 120 59c95 0 120 -60 120 -179v-193zM261 92
v90c-16 47 -55 75 -101 75c-65 0 -105 -46 -105 -120c0 -76 49 -125 107 -125c47 0 92 34 99 80zM58 570c0 62 49 112 112 112s112 -49 112 -112s-49 -112 -112 -112s-112 50 -112 112zM87 570c0 -47 36 -83 83 -83s83 36 83 83s-36 84 -83 84s-83 -37 -83 -84z" />
    <glyph glyph-name="atilde" unicode="&#xe3;" horiz-adv-x="340" 
d="M296 53c0 -26 5 -38 25 -38h34v-15h-97v38c-34 -31 -72 -47 -109 -47c-76 0 -132 59 -132 142c0 80 65 141 144 141c32 0 64 -11 97 -32v21c0 97 -26 145 -93 145c-65 0 -110 -49 -110 -132v-10h-11v181h11v-81c34 39 74 59 121 59c95 0 120 -60 120 -179v-193zM261 92
v90c-16 47 -55 75 -101 75c-65 0 -105 -46 -105 -120c0 -76 49 -125 107 -125c47 0 92 34 99 80zM280 612c-9 -54 -29 -81 -62 -81c-13 0 -26 3 -39 8l-42 15c-9 3 -17 5 -23 5c-21 0 -34 -15 -40 -44h-14c9 54 28 81 60 81c12 0 25 -2 39 -7l44 -15c8 -3 16 -6 25 -6
c19 0 32 15 38 44h14z" />
    <glyph glyph-name="ccedilla" unicode="&#xe7;" horiz-adv-x="417" 
d="M399 72c-49 -55 -104 -82 -170 -82c-117 0 -203 83 -203 204c0 133 99 233 232 233c32 0 63 -6 94 -19v42h12v-218h-12v123c-26 34 -66 53 -112 53c-97 0 -181 -82 -181 -191c0 -114 83 -199 191 -199c52 0 94 21 139 66zM113 -179l10 26c41 -21 78 -31 108 -31
c42 0 65 19 65 52c0 30 -23 49 -65 49c-9 0 -19 -1 -29 -3v86h24v-62c10 2 19 2 28 2c52 0 81 -26 81 -70c0 -50 -39 -81 -100 -81c-30 0 -72 11 -122 32z" />
    <glyph glyph-name="eacute" unicode="&#xe9;" horiz-adv-x="483" 
d="M72 292h338c-21 63 -83 102 -170 102c-74 0 -133 -36 -168 -102zM66 275c-6 -20 -9 -40 -9 -61c0 -116 85 -196 199 -196c90 0 163 52 195 141l14 -4c-34 -105 -117 -166 -223 -166c-132 0 -216 83 -216 204c0 131 104 234 235 234c99 0 175 -59 192 -152h-387zM208 485
l102 152c8 13 15 20 24 20s15 -8 15 -19c0 -10 -5 -18 -13 -27l-113 -126h-15z" />
    <glyph glyph-name="ecircumflex" unicode="&#xea;" horiz-adv-x="483" 
d="M72 292h338c-21 63 -83 102 -170 102c-74 0 -133 -36 -168 -102zM66 275c-6 -20 -9 -40 -9 -61c0 -116 85 -196 199 -196c90 0 163 52 195 141l14 -4c-34 -105 -117 -166 -223 -166c-132 0 -216 83 -216 204c0 131 104 234 235 234c99 0 175 -59 192 -152h-387zM141 485
l94 170h20l94 -170h-15l-89 123l-89 -123h-15z" />
    <glyph glyph-name="edieresis" unicode="&#xeb;" horiz-adv-x="483" 
d="M72 292h338c-21 63 -83 102 -170 102c-74 0 -133 -36 -168 -102zM66 275c-6 -20 -9 -40 -9 -61c0 -116 85 -196 199 -196c90 0 163 52 195 141l14 -4c-34 -105 -117 -166 -223 -166c-132 0 -216 83 -216 204c0 131 104 234 235 234c99 0 175 -59 192 -152h-387zM139 551
c0 20 18 38 38 38c21 0 38 -18 38 -38c0 -22 -16 -38 -38 -38s-38 16 -38 38zM276 551c0 20 17 38 37 38c21 0 38 -18 38 -38c0 -22 -16 -38 -38 -38s-37 16 -37 38z" />
    <glyph glyph-name="egrave" unicode="&#xe8;" horiz-adv-x="483" 
d="M72 292h338c-21 63 -83 102 -170 102c-74 0 -133 -36 -168 -102zM66 275c-6 -20 -9 -40 -9 -61c0 -116 85 -196 199 -196c90 0 163 52 195 141l14 -4c-34 -105 -117 -166 -223 -166c-132 0 -216 83 -216 204c0 131 104 234 235 234c99 0 175 -59 192 -152h-387zM282 485
h-15l-113 126c-8 9 -13 17 -13 27c0 12 7 19 16 19c8 0 14 -7 23 -20z" />
    <glyph glyph-name="iacute" unicode="&#xed;" horiz-adv-x="163" 
d="M105 53c0 -26 6 -38 26 -38h22v-15h-131v15h44v345l-40 -46l-10 9l97 111l10 -9l-18 -21v-351zM48 485l102 152c8 13 15 20 24 20s15 -8 15 -19c0 -10 -5 -18 -13 -27l-113 -126h-15z" />
    <glyph glyph-name="icircumflex" unicode="&#xee;" horiz-adv-x="163" 
d="M105 53c0 -26 6 -38 26 -38h22v-15h-131v15h44v345l-40 -46l-10 9l97 111l10 -9l-18 -21v-351zM-19 485l94 170h20l94 -170h-15l-89 123l-89 -123h-15z" />
    <glyph glyph-name="idieresis" unicode="&#xef;" horiz-adv-x="163" 
d="M105 53c0 -26 6 -38 26 -38h22v-15h-131v15h44v345l-40 -46l-10 9l97 111l10 -9l-18 -21v-351zM-21 551c0 20 18 38 38 38c21 0 38 -18 38 -38c0 -22 -16 -38 -38 -38s-38 16 -38 38zM116 551c0 20 17 38 37 38c21 0 38 -18 38 -38c0 -22 -16 -38 -38 -38s-37 16 -37 38z
" />
    <glyph glyph-name="igrave" unicode="&#xec;" horiz-adv-x="163" 
d="M105 53c0 -26 6 -38 26 -38h22v-15h-131v15h44v345l-40 -46l-10 9l97 111l10 -9l-18 -21v-351zM122 485h-15l-113 126c-8 9 -13 17 -13 27c0 12 7 19 16 19c8 0 14 -7 23 -20z" />
    <glyph glyph-name="ntilde" unicode="&#xf1;" horiz-adv-x="368" 
d="M277 289c0 72 -23 108 -83 108c-55 0 -92 -40 -92 -108v-236c0 -26 5 -38 25 -38h23v-15h-131v15h44v346l-40 -47l-11 9l98 111l10 -9l-18 -21v-43c27 43 61 64 107 64c81 0 107 -48 107 -151v-221c0 -26 5 -38 25 -38h22v-15h-118v15h32v274zM298 612
c-9 -54 -29 -81 -62 -81c-13 0 -26 3 -39 8l-42 15c-9 3 -17 5 -23 5c-21 0 -34 -15 -40 -44h-14c9 54 28 81 60 81c12 0 25 -2 39 -7l44 -15c8 -3 16 -6 25 -6c19 0 32 15 38 44h14z" />
    <glyph glyph-name="oacute" unicode="&#xf3;" horiz-adv-x="502" 
d="M26 194c0 132 103 233 235 233c129 0 215 -82 215 -203c0 -136 -102 -235 -238 -235c-126 0 -212 85 -212 205zM59 217c0 -121 88 -204 199 -204c103 0 185 76 185 185c0 122 -88 206 -198 206c-102 0 -186 -77 -186 -187zM214 485l102 152c8 13 15 20 24 20
s15 -8 15 -19c0 -10 -5 -18 -13 -27l-113 -126h-15z" />
    <glyph glyph-name="ocircumflex" unicode="&#xf4;" horiz-adv-x="502" 
d="M26 194c0 132 103 233 235 233c129 0 215 -82 215 -203c0 -136 -102 -235 -238 -235c-126 0 -212 85 -212 205zM59 217c0 -121 88 -204 199 -204c103 0 185 76 185 185c0 122 -88 206 -198 206c-102 0 -186 -77 -186 -187zM147 485l94 170h20l94 -170h-15l-89 123
l-89 -123h-15z" />
    <glyph glyph-name="odieresis" unicode="&#xf6;" horiz-adv-x="502" 
d="M26 194c0 132 103 233 235 233c129 0 215 -82 215 -203c0 -136 -102 -235 -238 -235c-126 0 -212 85 -212 205zM59 217c0 -121 88 -204 199 -204c103 0 185 76 185 185c0 122 -88 206 -198 206c-102 0 -186 -77 -186 -187zM145 551c0 20 18 38 38 38c21 0 38 -18 38 -38
c0 -22 -16 -38 -38 -38s-38 16 -38 38zM282 551c0 20 17 38 37 38c21 0 38 -18 38 -38c0 -22 -16 -38 -38 -38s-37 16 -37 38z" />
    <glyph glyph-name="ograve" unicode="&#xf2;" horiz-adv-x="502" 
d="M26 194c0 132 103 233 235 233c129 0 215 -82 215 -203c0 -136 -102 -235 -238 -235c-126 0 -212 85 -212 205zM59 217c0 -121 88 -204 199 -204c103 0 185 76 185 185c0 122 -88 206 -198 206c-102 0 -186 -77 -186 -187zM288 485h-15l-113 126c-8 9 -13 17 -13 27
c0 12 7 19 16 19c8 0 14 -7 23 -20z" />
    <glyph glyph-name="otilde" unicode="&#xf5;" horiz-adv-x="502" 
d="M26 194c0 132 103 233 235 233c129 0 215 -82 215 -203c0 -136 -102 -235 -238 -235c-126 0 -212 85 -212 205zM59 217c0 -121 88 -204 199 -204c103 0 185 76 185 185c0 122 -88 206 -198 206c-102 0 -186 -77 -186 -187zM361 612c-9 -54 -29 -81 -62 -81
c-13 0 -26 3 -39 8l-42 15c-9 3 -17 5 -23 5c-21 0 -34 -15 -40 -44h-14c9 54 28 81 60 81c12 0 25 -2 39 -7l44 -15c8 -3 16 -6 25 -6c19 0 32 15 38 44h14z" />
    <glyph glyph-name="scaron" unicode="&#x161;" horiz-adv-x="384" 
d="M312 287h-12v7c0 77 -31 116 -92 116c-42 0 -71 -26 -71 -66c0 -49 46 -58 116 -85c80 -31 116 -60 116 -127c0 -95 -74 -159 -186 -159c-104 0 -170 58 -170 137c0 61 43 105 99 105c43 0 73 -29 73 -63c0 -36 -23 -58 -69 -61v9c26 7 38 22 38 45c0 26 -22 48 -52 48
c-38 0 -65 -28 -65 -70c0 -68 65 -130 159 -130c84 0 139 52 139 126c0 67 -45 81 -121 109s-112 49 -112 107c0 55 42 92 108 92c28 0 57 -8 90 -23v54h12v-171zM88 655h15l89 -124l89 124h15l-94 -170h-20z" />
    <glyph glyph-name="uacute" unicode="&#xfa;" horiz-adv-x="363" 
d="M95 127c0 -73 24 -107 82 -107c56 0 92 40 92 108v237c0 26 -5 38 -25 38h-32v14h97v-364c0 -26 5 -38 25 -38h23v-15h-88v56c-29 -44 -61 -65 -107 -65c-81 0 -106 49 -106 152v222c0 26 -6 38 -26 38h-36v14h101v-290zM145 485l102 152c8 13 15 20 24 20s15 -8 15 -19
c0 -10 -5 -18 -13 -27l-113 -126h-15z" />
    <glyph glyph-name="ucircumflex" unicode="&#xfb;" horiz-adv-x="363" 
d="M95 127c0 -73 24 -107 82 -107c56 0 92 40 92 108v237c0 26 -5 38 -25 38h-32v14h97v-364c0 -26 5 -38 25 -38h23v-15h-88v56c-29 -44 -61 -65 -107 -65c-81 0 -106 49 -106 152v222c0 26 -6 38 -26 38h-36v14h101v-290zM78 485l94 170h20l94 -170h-15l-89 123l-89 -123
h-15z" />
    <glyph glyph-name="udieresis" unicode="&#xfc;" horiz-adv-x="363" 
d="M95 127c0 -73 24 -107 82 -107c56 0 92 40 92 108v237c0 26 -5 38 -25 38h-32v14h97v-364c0 -26 5 -38 25 -38h23v-15h-88v56c-29 -44 -61 -65 -107 -65c-81 0 -106 49 -106 152v222c0 26 -6 38 -26 38h-36v14h101v-290zM76 551c0 20 18 38 38 38c21 0 38 -18 38 -38
c0 -22 -16 -38 -38 -38s-38 16 -38 38zM213 551c0 20 17 38 37 38c21 0 38 -18 38 -38c0 -22 -16 -38 -38 -38s-37 16 -37 38z" />
    <glyph glyph-name="ugrave" unicode="&#xf9;" horiz-adv-x="363" 
d="M95 127c0 -73 24 -107 82 -107c56 0 92 40 92 108v237c0 26 -5 38 -25 38h-32v14h97v-364c0 -26 5 -38 25 -38h23v-15h-88v56c-29 -44 -61 -65 -107 -65c-81 0 -106 49 -106 152v222c0 26 -6 38 -26 38h-36v14h101v-290zM219 485h-15l-113 126c-8 9 -13 17 -13 27
c0 12 7 19 16 19c8 0 14 -7 23 -20z" />
    <glyph glyph-name="ydieresis" unicode="&#xff;" horiz-adv-x="321" 
d="M49 355c-12 35 -22 49 -56 49c-5 0 -10 -1 -15 -1v14h139v-14h-41l104 -302l57 170c13 39 19 70 19 91c0 30 -9 41 -35 41h-10v14h144v-14h-44c-74 -173 -118 -356 -206 -521c-54 -101 -102 -152 -146 -152c-4 0 -7 0 -10 1v59h10c2 -9 9 -14 18 -14c42 0 112 87 181 266
zM55 551c0 20 18 38 38 38c21 0 38 -18 38 -38c0 -22 -16 -38 -38 -38s-38 16 -38 38zM192 551c0 20 17 38 37 38c21 0 38 -18 38 -38c0 -22 -16 -38 -38 -38s-37 16 -37 38z" />
    <glyph glyph-name="zcaron" unicode="&#x17e;" horiz-adv-x="338" 
d="M187 15c100 0 112 28 112 120v40h11v-214h-11v39h-287l254 403h-146c-60 0 -76 -35 -76 -122v-24h-10v211h10v-51h277l-256 -402h122zM65 655h15l89 -124l89 124h15l-94 -170h-20z" />
    <glyph glyph-name="trademark" unicode="&#x2122;" horiz-adv-x="822" 
d="M129 699h213l5 -85h-11c-5 52 -25 74 -70 74h-11v-208c0 -16 10 -27 24 -27h15v-12h-118v12h16c14 0 24 11 24 27v208h-11c-45 0 -65 -22 -70 -74h-11zM391 699h83l71 -202l77 202h79v-12h-15c-14 0 -24 -10 -24 -27v-180c0 -16 10 -27 24 -27h15v-12h-111v12h15
c14 0 24 11 24 27v198l-91 -239h-4l-85 238v-197c0 -16 10 -27 24 -27h15v-12h-97v11h15c14 0 24 11 24 28v179c0 16 -10 28 -24 28h-15v12z" />
    <glyph glyph-name="copyright" unicode="&#xa9;" horiz-adv-x="822" 
d="M412 669c88 0 174 -36 237 -98c62 -62 99 -151 99 -240c0 -88 -36 -173 -100 -238c-63 -64 -146 -99 -237 -99c-90 0 -173 35 -238 99c-64 64 -99 146 -99 238c0 90 34 173 98 238c63 64 150 100 240 100zM412 634c-80 0 -156 -32 -212 -89c-57 -58 -88 -133 -88 -214
c0 -82 31 -157 88 -214c58 -58 131 -88 211 -88c81 0 155 30 211 88c57 59 89 134 89 214s-33 161 -88 216c-56 56 -133 87 -211 87zM546 534h15v-150h-18c-21 89 -69 134 -139 134c-82 0 -126 -62 -126 -184c0 -124 46 -187 135 -187c58 0 104 27 140 84l15 -10
c-36 -66 -92 -101 -164 -101c-107 0 -193 91 -193 204c0 122 86 213 191 213c59 0 92 -33 112 -33c18 0 29 10 32 30z" />
    <glyph glyph-name="logicalnot" unicode="&#xac;" horiz-adv-x="833" 
d="M124 418h585v-245h-39v206h-546v39z" />
    <glyph glyph-name="registered" unicode="&#xae;" horiz-adv-x="822" 
d="M412 669c88 0 174 -36 237 -98c62 -62 99 -151 99 -240c0 -88 -36 -173 -100 -238c-63 -64 -146 -99 -237 -99c-90 0 -173 35 -238 99c-64 64 -99 146 -99 238c0 90 34 173 98 238c63 64 150 100 240 100zM412 634c-80 0 -156 -32 -212 -89c-57 -58 -88 -133 -88 -214
c0 -82 31 -157 88 -214c58 -58 131 -88 211 -88c81 0 155 30 211 88c57 59 89 134 89 214s-33 161 -88 216c-56 56 -133 87 -211 87zM229 531h191c98 0 154 -38 154 -96c0 -50 -46 -79 -142 -97c61 -20 88 -49 103 -105c10 -38 6 -72 33 -72s38 19 39 63h18v-4
c0 -56 -24 -86 -73 -86c-31 0 -53 13 -61 34c-14 35 -4 76 -13 104c-15 44 -49 62 -109 62c-6 0 -12 -1 -19 -1v-121c0 -38 18 -49 67 -50v-19h-188v19c49 1 67 12 67 50v250c0 38 -18 50 -67 51v18zM350 350c12 -1 23 -1 33 -1c84 0 128 31 128 86c0 47 -37 81 -106 81
c-36 0 -55 -14 -55 -37v-129z" />
    <glyph glyph-name="minus" unicode="&#x2212;" horiz-adv-x="833" 
d="M124 318h585v-39h-585v39z" />
    <glyph glyph-name="Eth" unicode="&#xd0;" horiz-adv-x="631" 
d="M19 0v15h55v411h-69v19h69v106v6c0 52 -1 66 -50 66h-5v16h104v-16c53 20 103 29 151 29c194 0 325 -136 325 -323c0 -99 -36 -182 -108 -249c-65 -60 -142 -91 -232 -91c-45 0 -90 9 -136 27v-16h-104zM123 585v-140h214v-19h-214v-367c39 -29 85 -43 139 -43
c168 0 289 124 289 308c0 178 -123 304 -284 304c-49 0 -96 -15 -144 -43z" />
    <glyph glyph-name="Thorn" unicode="&#xde;" horiz-adv-x="593" 
d="M14 639h160v-16h-56v-78c61 33 119 50 176 50c154 0 273 -114 273 -261c0 -156 -123 -276 -296 -276c-56 0 -106 15 -153 47v-8c0 -67 5 -82 70 -82h14v-15h-188v15h55v536c0 55 0 72 -47 72h-8v16zM118 155c36 -47 101 -75 173 -75c134 0 231 104 231 248
c0 70 -20 124 -65 171c-45 48 -102 73 -163 73c-71 0 -130 -23 -176 -69v-348z" />
    <glyph glyph-name="Yacute" unicode="&#xdd;" horiz-adv-x="456" 
d="M252 296v-188c0 -76 1 -93 74 -93h21v-15h-209v15h66v277l-158 297c-18 34 -24 35 -57 35h-13v15h174v-15h-69l162 -300l104 239c7 16 10 31 10 36c0 21 -10 25 -41 25h-11v15h136v-15h-47zM191 712l102 152c8 13 15 20 24 20s15 -8 15 -19c0 -10 -5 -18 -13 -27
l-113 -126h-15z" />
    <glyph glyph-name="brokenbar" unicode="&#xa6;" 
d="M228 699h44v-370h-44v370zM228 199h44v-370h-44v370z" />
    <glyph glyph-name="degree" unicode="&#xb0;" horiz-adv-x="329" 
d="M165 708c73 0 133 -60 133 -134c0 -73 -59 -133 -134 -133s-133 59 -133 133c0 75 60 134 134 134zM165 678c-58 0 -104 -46 -104 -104s47 -104 104 -104c58 0 104 47 104 104c0 58 -47 104 -104 104z" />
    <glyph glyph-name="divide" unicode="&#xf7;" horiz-adv-x="833" 
d="M417 515c27 0 48 -21 48 -48c0 -26 -21 -49 -48 -49s-48 22 -48 49s22 48 48 48zM124 318h585v-39h-585v39zM417 179c27 0 48 -23 48 -49c0 -27 -21 -48 -48 -48s-48 20 -48 48c0 26 22 49 48 49z" />
    <glyph glyph-name="eth" unicode="&#xf0;" horiz-adv-x="502" 
d="M141 710c60 -23 117 -55 173 -98l115 51l7 -15l-108 -48c99 -91 149 -209 149 -349c0 -162 -99 -262 -235 -262c-132 0 -216 84 -216 205c0 132 103 233 235 233c81 0 136 -28 177 -93c-19 106 -66 190 -135 256l-155 -69l-7 14l148 66c-42 36 -94 66 -157 91zM443 201
c0 118 -89 203 -198 203c-103 0 -186 -77 -186 -187c0 -121 88 -204 199 -204c104 0 185 74 185 188z" />
    <glyph glyph-name="mu" unicode="&#xb5;" horiz-adv-x="513" 
d="M79 93c-32 -199 -17 -296 -69 -296c-20 0 -34 14 -34 30c0 35 34 149 77 351l53 254h58l-54 -253c-3 -14 -4 -28 -4 -43c0 -63 34 -103 82 -103c64 0 111 55 136 164l54 235h58l-57 -257c-9 -41 -13 -70 -13 -87c0 -29 14 -46 37 -46c27 0 51 18 64 50c19 45 22 73 36 73
c8 0 13 -6 13 -15c0 -14 -8 -54 -26 -86c-26 -47 -61 -71 -103 -71c-45 0 -70 30 -70 85c0 5 1 11 1 16c-28 -69 -71 -104 -132 -104s-98 36 -107 103z" />
    <glyph glyph-name="multiply" unicode="&#xd7;" horiz-adv-x="833" 
d="M179 564l238 -238l238 238l28 -28l-238 -238l238 -238l-28 -28l-238 238l-238 -238l-28 28l238 238l-238 238z" />
    <glyph glyph-name="onehalf" unicode="&#xbd;" horiz-adv-x="575" 
d="M112 631v-297c0 -44 5 -52 71 -52v-8h-161v8h64v312c-20 -18 -41 -34 -63 -47l-6 7c40 26 68 53 84 77h11zM6 -14l459 651h41l-463 -651h-37zM360 0c110 116 167 202 167 262c0 48 -28 75 -75 75c-57 0 -93 -40 -93 -112c0 -5 0 -11 1 -17h-9v146h9v-58
c25 39 65 61 108 61c55 0 90 -33 90 -85c0 -64 -62 -136 -152 -246h146v98h8v-124h-200z" />
    <glyph glyph-name="onequarter" unicode="&#xbc;" horiz-adv-x="578" 
d="M112 631v-297c0 -44 5 -52 71 -52v-8h-161v8h64v312c-20 -18 -41 -34 -63 -47l-6 7c40 26 68 53 84 77h11zM6 -14l459 651h41l-463 -651h-37zM511 60c0 -41 2 -52 49 -52v-8h-126v8h52v94h-145v9c10 8 17 18 24 30l153 216l7 -5l-14 -20v-209h67c-16 -15 -37 -21 -67 -21
v-42zM367 123h119v173z" />
    <glyph glyph-name="onesuperior" unicode="&#xb9;" horiz-adv-x="182" 
d="M117 631v-317c0 -48 5 -56 74 -56v-9h-168v9h67v334c-21 -20 -42 -37 -66 -51l-6 8c42 28 71 57 88 82h11z" />
    <glyph glyph-name="plusminus" unicode="&#xb1;" horiz-adv-x="833" 
d="M397 567h39v-173h273v-39h-273v-172h-39v172h-273v39h273v173zM124 69h585v-39h-585v39z" />
    <glyph glyph-name="thorn" unicode="&#xfe;" horiz-adv-x="523" 
d="M109 710l10 -9l-17 -21v-327c56 50 111 74 179 74c129 0 215 -85 215 -211c0 -63 -23 -115 -69 -159c-47 -44 -103 -67 -166 -67c-60 0 -108 19 -159 60v-233c0 -26 5 -38 25 -38h35v-15h-142v15h42v858l-40 -47l-10 9zM101 131c24 -73 93 -119 174 -119
c106 0 180 77 180 200c0 118 -76 195 -183 195c-93 0 -169 -60 -171 -129v-147z" />
    <glyph glyph-name="threequarters" unicode="&#xbe;" horiz-adv-x="641" 
d="M-8 283c22 -9 42 -14 61 -14c31 0 65 12 94 36c34 29 53 64 53 99c0 49 -40 82 -95 82c-24 0 -45 -5 -63 -18l-6 8c27 17 58 19 82 29c29 12 44 31 44 58c0 34 -22 55 -57 55c-41 0 -72 -28 -72 -75h-8v90h8v-35c26 21 54 32 83 32c43 0 71 -24 71 -61
c0 -33 -17 -56 -52 -70c60 -9 93 -44 93 -92c0 -32 -15 -66 -44 -94c-36 -35 -84 -54 -139 -54c-20 0 -40 4 -58 12zM70 -14l459 651h41l-463 -651h-37zM575 60c0 -41 2 -52 49 -52v-8h-126v8h52v94h-145v9c10 8 17 18 24 30l153 216l7 -5l-14 -20v-209h67
c-16 -15 -37 -21 -67 -21v-42zM431 123h119v173z" />
    <glyph glyph-name="threesuperior" unicode="&#xb3;" horiz-adv-x="248" 
d="M-9 259c24 -10 45 -15 64 -15c33 0 68 13 99 39c36 30 55 68 55 106c0 51 -41 87 -99 87c-25 0 -47 -6 -66 -19l-6 8c28 19 61 21 85 31c31 13 47 34 47 63c0 36 -23 59 -60 59c-43 0 -75 -31 -75 -80h-9v96h9v-38c27 23 56 35 86 35c46 0 75 -27 75 -66
c0 -35 -18 -60 -54 -75c62 -9 97 -47 97 -99c0 -34 -16 -70 -46 -101c-38 -37 -88 -57 -145 -57c-22 0 -43 4 -62 12z" />
    <glyph glyph-name="twosuperior" unicode="&#xb2;" horiz-adv-x="246" 
d="M20 249c117 124 176 216 176 281c0 51 -30 80 -79 80c-59 0 -97 -42 -97 -120v-18h-8v157h8v-63c28 42 69 65 114 65c57 0 94 -35 94 -91c0 -68 -64 -145 -159 -263h153v105h8v-133h-210z" />
    <glyph glyph-name="yacute" unicode="&#xfd;" horiz-adv-x="321" 
d="M49 355c-12 35 -22 49 -56 49c-5 0 -10 -1 -15 -1v14h139v-14h-41l104 -302l57 170c13 39 19 70 19 91c0 30 -9 41 -35 41h-10v14h144v-14h-44c-74 -173 -118 -356 -206 -521c-54 -101 -102 -152 -146 -152c-4 0 -7 0 -10 1v59h10c2 -9 9 -14 18 -14c42 0 112 87 181 266
zM124 485l102 152c8 13 15 20 24 20s15 -8 15 -19c0 -10 -5 -18 -13 -27l-113 -126h-15z" />
    </font>
</defs>
</svg>
